<svg width="8192" height="8192" viewBox="0 0 8192 8192" fill="none" xmlns="http://www.w3.org/2000/svg">
<path fill-rule="evenodd" clip-rule="evenodd" d="M2529.55 4217.23C2536.64 4211.58 2545.44 4208.5 2554.5 4208.5H2753.85C2758.58 4208.5 2763.27 4209.34 2767.71 4210.98L2832.79 4235.02C2837.23 4236.66 2841.92 4237.5 2846.65 4237.5H3039.5L3286.5 4229.5L3349.13 4236.36C3355.93 4237.11 3362.81 4236.1 3369.11 4233.42L3397.78 4221.26C3405.09 4218.16 3413.17 4217.3 3420.97 4218.8L3462.64 4226.83C3471.61 4228.56 3480.9 4227.17 3488.96 4222.89L3532.7 4199.67C3538.48 4196.6 3544.92 4195 3551.46 4195H3585.89C3592.53 4195 3599.06 4196.65 3604.9 4199.8L3610.75 4202.96C3617.44 4206.58 3625.03 4208.21 3632.62 4207.66L3808.5 4195H3920.09C3925.31 4195 3930.48 4196.02 3935.31 4198.01L4053.19 4246.49C4058.02 4248.48 4063.19 4249.5 4068.4 4249.5H4198.25C4203.05 4249.5 4207.8 4250.36 4212.29 4252.04L4383 4316L4435.88 4341.05C4444.66 4345.21 4454.65 4346.03 4463.99 4343.36L4491.76 4335.42C4500.65 4332.89 4510.13 4333.5 4518.61 4337.17L4733.5 4430L4854.32 4482.98C4860.35 4485.62 4865.63 4489.7 4869.7 4494.87L4930.99 4572.77C4933.97 4576.56 4937.62 4579.78 4941.75 4582.27L5001.43 4618.32C5008.63 4622.66 5014.27 4629.16 5017.56 4636.89L5120.9 4879.7C5123.9 4886.75 5124.82 4894.52 5123.53 4902.07L5101.98 5028.7C5101.66 5030.56 5101.21 5032.4 5100.63 5034.21L5071.33 5125.51C5068.53 5134.24 5062.82 5141.74 5055.15 5146.76L4904.07 5245.63C4894.49 5251.91 4882.67 5253.77 4871.62 5250.75L4743.74 5215.8C4737.03 5213.96 4730.91 5210.41 4726 5205.5L4547.58 5027.08C4542.61 5022.11 4536.43 5018.54 4529.64 5016.73L4428.09 4989.53C4423.08 4988.19 4417.85 4987.84 4412.71 4988.49L4295.87 5003.3C4287.2 5004.4 4279.12 5008.32 4272.88 5014.44L4271.43 5015.87C4261.53 5025.58 4247.3 5029.48 4233.83 5026.16L4155.13 5006.76C4150.41 5005.6 4145.95 5003.59 4141.96 5000.83L4031.07 4924.2C4027.06 4921.42 4023.58 4917.94 4020.83 4913.91L3962.48 4828.85C3960.5 4825.96 3958.15 4823.35 3955.49 4821.07L3863 4742L3788.23 4670.09C3785.75 4667.71 3782.98 4665.65 3779.98 4663.98L3568.88 4546.27C3552.8 4537.3 3532.68 4540.47 3520.13 4553.94L3504.02 4571.23C3493.6 4582.41 3490.47 4598.55 3495.93 4612.81L3510 4649.52C3514.13 4660.31 3522.72 4668.78 3533.56 4672.76L3674.5 4724.5L3822.51 4802.14C3825.49 4803.71 3828.26 4805.64 3830.76 4807.91L3976.55 4939.83C3978.51 4941.61 3980.29 4943.57 3981.86 4945.69L4036.5 5019.5L4076.38 5065.7C4083.19 5073.59 4092.81 5078.51 4103.19 5079.41L4276.38 5094.47C4280.43 5094.82 4284.52 5094.55 4288.5 5093.67L4392.72 5070.56C4398.82 5069.2 4405.16 5069.3 4411.21 5070.84L4460.75 5083.4C4467.47 5085.1 4473.63 5088.52 4478.62 5093.32L4643.24 5251.41C4645.97 5254.04 4649.61 5255.5 4653.4 5255.5C4666.42 5255.5 4672.98 5271.21 4663.83 5280.47L4652.36 5292.08C4649.2 5295.28 4645.12 5297.41 4640.68 5298.16L4577 5309L4475.94 5335.22C4472.66 5336.07 4469.28 5336.5 4465.9 5336.5H4336.5L4025 5351.5H3831.5C3828.51 5351.5 3825.53 5351.16 3822.61 5350.5L3588 5297L3414.22 5256.71C3410.76 5255.91 3407.41 5254.64 3404.28 5252.95L3345 5221L3214.89 5166.67C3210.66 5164.9 3206.77 5162.42 3203.38 5159.34L3119.67 5083.16C3115.92 5079.75 3111.56 5077.08 3106.82 5075.3L3046.78 5052.74C3041.97 5050.93 3037.56 5048.21 3033.78 5044.74L2883.94 4906.96C2880.02 4903.36 2875.42 4900.57 2870.41 4898.77L2668.15 4825.99C2665.39 4825 2662.75 4823.71 2660.27 4822.14L2479.69 4707.65C2476.91 4705.89 2474.35 4703.79 2472.09 4701.4L2376.92 4601.11C2374.65 4598.71 2372.68 4596.04 2371.06 4593.16L2335.06 4529.07C2330.5 4520.95 2328.91 4511.48 2330.58 4502.31L2354.81 4369.25C2356.55 4359.74 2361.66 4351.18 2369.22 4345.15L2529.55 4217.23ZM3391.34 4993.59C3397.46 4988.15 3405.68 4985.72 3413.77 4986.97L3472.5 4996.04C3474.5 4996.35 3476.47 4996.8 3478.39 4997.41L3609.19 5038.52C3613.37 5039.83 3617.73 5040.45 3622.11 5040.35L3748.13 5037.44C3759.88 5037.16 3770.95 5042.93 3777.47 5052.71C3787.38 5067.56 3784.23 5087.54 3770.24 5098.63L3764.92 5102.85C3757.85 5108.45 3749.09 5111.5 3740.07 5111.5H3644.71C3640.59 5111.5 3636.5 5110.86 3632.58 5109.62L3550.5 5083.5L3402.58 5041.3C3393.21 5038.63 3385.89 5031.29 3383.26 5021.91L3383.15 5021.54C3380.31 5011.42 3383.49 5000.57 3391.34 4993.59Z" fill="white" stroke="#BDBDBD" stroke-width="4"/>
<path d="M2915.03 5514.55L2833.6 5571.45C2824.02 5578.14 2817.84 5588.7 2816.7 5600.34L2811 5658.5L2806.62 5717.41C2805.9 5727.13 2801.65 5736.26 2794.67 5743.07L2769.84 5767.3C2765.99 5771.06 2762.93 5775.56 2760.86 5780.54L2739 5833L2710.32 5894.4C2708.13 5899.09 2706.87 5904.16 2706.61 5909.32L2701.75 6006.1C2701.58 6009.35 2701.82 6012.62 2702.45 6015.82L2726.27 6137.01C2728.62 6149 2736.34 6159.26 2747.21 6164.86L2753.09 6167.88C2760.2 6171.54 2766.05 6177.25 2769.88 6184.27L2805.22 6248.93C2808.99 6255.82 2814.71 6261.46 2821.66 6265.12L2952.72 6334.27C2954.9 6335.42 2957.18 6336.37 2959.54 6337.1L3118.02 6386.25C3124.88 6388.38 3132.19 6388.62 3139.17 6386.95L3165.26 6380.71C3171.33 6379.26 3177.67 6379.25 3183.75 6380.68L3307.88 6409.99C3314.83 6411.63 3321.22 6415.11 3326.38 6420.06L3386.89 6478.12C3390.6 6481.67 3394.95 6484.48 3399.71 6486.39L3593.5 6564L3709 6621L3832.5 6697.5L3981.59 6813.14C3986.14 6816.67 3989.88 6821.14 3992.54 6826.25L4020.69 6880.2C4023.2 6885.02 4026.67 6889.27 4030.88 6892.7L4100.04 6949.08C4102.01 6950.69 4103.82 6952.48 4105.45 6954.43L4207.23 7076.19C4209.07 7078.39 4211.14 7080.39 4213.41 7082.14L4298.81 7148.38C4307.55 7155.16 4318.69 7158.02 4329.61 7156.28L4370.11 7149.84C4381.48 7148.04 4391.52 7141.41 4397.66 7131.67L4477.4 7005.21C4479.78 7001.43 4481.52 6997.28 4482.53 6992.92L4495.08 6938.85C4498.42 6924.48 4509.4 6913.11 4523.65 6909.27L4629.57 6880.78C4639.77 6878.04 4648.48 6871.37 4653.78 6862.23L4688.66 6802.11C4691.2 6797.74 4694.54 6793.89 4698.5 6790.77L4739.9 6758.14C4747.39 6752.24 4752.52 6743.86 4754.38 6734.52L4765.23 6679.86C4765.74 6677.29 4766 6674.68 4766 6672.07V6570L4759.72 6460.26C4759.57 6457.76 4759.19 6455.28 4758.59 6452.85L4744.6 6396.91C4742.9 6390.09 4739.42 6383.84 4734.53 6378.79L4652.53 6294.11C4650.85 6292.37 4649.01 6290.79 4647.04 6289.39L4515.85 6195.68C4514.29 6194.56 4512.8 6193.33 4511.41 6192L4452.5 6135.5L4404.8 6093.87C4397.52 6087.5 4388.17 6084 4378.5 6084H4355.28C4346.66 6084 4338.27 6081.21 4331.36 6076.06L4183.41 5965.66C4178.86 5962.26 4173.63 5959.87 4168.07 5958.65L3978.5 5917L3820.02 5886.28C3817.35 5885.76 3814.73 5884.97 3812.22 5883.92L3551.45 5775.07C3548.17 5773.7 3544.71 5772.77 3541.18 5772.31L3324.17 5744.23C3320.41 5743.75 3316.74 5742.73 3313.27 5741.21L3195.81 5689.83C3192.29 5688.28 3188.56 5687.26 3184.74 5686.78L3156.81 5683.29C3141.46 5681.37 3126.84 5690.42 3121.72 5705.02L3116.82 5718.96C3115.13 5723.78 3110.58 5727 3105.48 5727C3097.63 5727 3091.89 5719.6 3093.83 5712L3103.55 5673.94C3106.09 5664.03 3104.72 5653.52 3099.74 5644.58L3053.28 5561.16C3048.89 5553.29 3041.97 5547.12 3033.64 5543.67L2953.25 5510.38C2940.63 5505.16 2926.23 5506.73 2915.03 5514.55Z" fill="white" stroke="#BDBDBD" stroke-width="4"/>
<path d="M1368 7355L1281.81 7274.43C1269.11 7262.55 1265.54 7243.84 1272.96 7228.12L1277.38 7218.76C1285.12 7202.39 1302.89 7193.25 1320.71 7196.49L1340.17 7200.03C1343.71 7200.67 1347.14 7201.79 1350.38 7203.35L1450.82 7251.76C1454.58 7253.58 1458.04 7255.97 1461.06 7258.85L1577.93 7370.31C1588.93 7380.8 1605.91 7381.79 1618.05 7372.63C1625.31 7367.16 1634.62 7365.14 1643.5 7367.12L1679.01 7375.05C1686.2 7376.65 1692.8 7380.21 1698.1 7385.33L1756.16 7441.47C1762.23 7447.34 1770 7451.14 1778.37 7452.32L1853.34 7462.91C1856.11 7463.3 1858.82 7463.98 1861.45 7464.94L1996.96 7514.35C1999.98 7515.44 2002.85 7516.9 2005.51 7518.69L2050.63 7548.89C2056.12 7552.57 2060.62 7557.56 2063.72 7563.41L2103.82 7639.11C2109.32 7649.5 2109.98 7661.8 2105.6 7672.72L2073.19 7753.57C2068.65 7764.9 2059.18 7773.53 2047.49 7777.02L1921.71 7814.52C1911.05 7817.7 1899.56 7816.29 1889.98 7810.65L1671.29 7681.85C1664.26 7677.72 1658.67 7671.53 1655.26 7664.13L1596.6 7536.84C1590.75 7524.14 1578.04 7516 1564.05 7516C1555.32 7516 1546.89 7512.81 1540.34 7507.04L1368 7355Z" fill="white" stroke="#BDBDBD" stroke-width="4"/>
<path d="M1038.88 7853.15L992.603 7779.95C988.469 7773.41 987.814 7765.25 990.853 7758.13C997.521 7742.52 1018.03 7738.89 1029.65 7751.27L1040.51 7762.85C1042.17 7764.61 1044 7766.19 1045.99 7767.56L1080.03 7791.04C1084.3 7793.99 1089.11 7796.07 1094.17 7797.18L1133.1 7805.72C1139.91 7807.21 1146.22 7810.47 1151.39 7815.15L1195.6 7855.21C1203.24 7862.13 1207.91 7871.74 1208.63 7882.03L1209.4 7892.81C1210.61 7909.95 1199.27 7925.45 1182.57 7929.48C1173.26 7931.73 1163.44 7930.08 1155.37 7924.93L1081.39 7877.63C1078.15 7875.55 1074.62 7873.96 1070.92 7872.89L1061.61 7870.21C1052.2 7867.5 1044.11 7861.43 1038.88 7853.15Z" fill="white" stroke="#BDBDBD" stroke-width="4"/>
<path d="M1456.53 6463.88L1483.33 6527.54C1484.44 6530.17 1485.26 6532.92 1485.79 6535.73L1495.35 6586.99C1495.78 6589.33 1496.42 6591.62 1497.27 6593.84L1530.17 6680.63C1533.9 6690.45 1541.46 6698.33 1551.12 6702.44C1560.93 6706.63 1568.58 6714.69 1572.23 6724.71L1584.73 6758.95C1589 6770.64 1598.47 6779.68 1610.35 6783.4L1620.69 6786.65C1628.7 6789.15 1635.71 6794.11 1640.74 6800.82L1665.22 6833.46C1669.65 6839.37 1675.63 6843.94 1682.5 6846.66L1744 6871L2021.35 6980.88C2027.36 6983.26 2033.86 6984.14 2040.29 6983.47L2136.13 6973.33C2141.33 6972.78 2146.58 6973.26 2151.59 6974.73L2293.72 7016.39C2296.23 7017.13 2298.81 7017.62 2301.42 7017.85L2392.41 7025.97C2399.98 7026.64 2407.2 7029.46 2413.23 7034.09L2460.94 7070.77C2471.32 7078.75 2484.94 7081.14 2497.41 7077.19L2503.82 7075.15C2513.27 7072.16 2523.49 7072.78 2532.51 7076.89L2643.48 7127.48C2647.14 7129.15 2651.03 7130.26 2655.02 7130.77L2865.97 7157.61C2867.99 7157.87 2869.98 7158.28 2871.94 7158.84L3022.22 7201.92C3024.73 7202.64 3027.17 7203.6 3029.49 7204.8L3087.38 7234.57C3102.93 7242.56 3121.86 7239.54 3134.14 7227.11L3189.56 7171C3192.5 7168.02 3195.89 7165.52 3199.61 7163.59L3225.43 7150.22C3232.01 7146.81 3237.52 7141.63 3241.33 7135.28L3281.94 7067.6C3284.92 7062.63 3289.22 7058.57 3294.35 7055.88C3307.1 7049.18 3313.71 7034.71 3310.44 7020.68L3278.16 6882.4C3276.42 6874.96 3272.59 6868.17 3267.11 6862.83L3171.7 6769.98C3166.34 6764.77 3159.64 6761.16 3152.33 6759.56C3090.34 6746.01 2986.6 6723 2993 6723C2999.25 6723 2950.53 6700.2 2919.31 6686.03C2914.16 6683.69 2908.57 6682.5 2902.91 6682.5H2823.08C2818.07 6682.5 2813.11 6681.56 2808.44 6679.72L2705.2 6639.12C2699.16 6636.74 2692.63 6635.87 2686.18 6636.58L2642.28 6641.42C2635.86 6642.13 2629.35 6641.27 2623.33 6638.92L2297.5 6511.5L2214.07 6482.51C2199.9 6477.59 2189.68 6465.17 2187.59 6450.32L2187.08 6446.74C2185.74 6437.23 2181.02 6428.52 2173.79 6422.21L2033.13 6299.3C2031.38 6297.77 2029.77 6296.09 2028.31 6294.28L1977.32 6231C1975.44 6228.67 1973.32 6226.57 1970.98 6224.72L1862.21 6138.72C1859.09 6136.25 1855.61 6134.27 1851.9 6132.82L1675.46 6064.18C1669.25 6061.77 1662.54 6060.94 1655.93 6061.78L1554.63 6074.64C1542.83 6076.13 1532.31 6082.81 1525.92 6092.84L1471.69 6178.05C1467.96 6183.92 1465.82 6190.65 1465.49 6197.59L1453.44 6446.42C1453.15 6452.4 1454.21 6458.36 1456.53 6463.88Z" fill="white" stroke="#BDBDBD" stroke-width="4"/>
<path d="M730.931 6207.31L739.206 6195.16C745.158 6186.41 754.332 6180.38 764.721 6178.38L771.071 6177.16C781.583 6175.14 792.466 6177.41 801.286 6183.48L813.847 6192.11C822.589 6198.12 833.36 6200.41 843.792 6198.48L845.708 6198.13C851.498 6197.06 857.453 6197.28 863.148 6198.77L916.658 6212.82C926.547 6215.41 936.686 6209.57 939.406 6199.72C941.3 6192.85 946.934 6187.66 953.933 6186.33L1013.03 6175.13C1016.99 6174.38 1021.03 6174.23 1025.03 6174.69L1069.66 6179.8C1079.23 6180.9 1088.08 6185.41 1094.59 6192.51L1105.84 6204.78C1113.28 6212.9 1117.05 6223.73 1116.24 6234.72L1114.12 6263.8C1113.11 6277.6 1105.04 6289.9 1092.77 6296.32L1071.53 6307.44C1063.42 6311.69 1054.11 6313.02 1045.14 6311.23L1014.4 6305.08C1012.47 6304.69 1010.57 6304.17 1008.72 6303.5L976.706 6292C966.069 6288.18 957.545 6280.04 953.241 6269.59L951.737 6265.93C946.06 6252.15 933.187 6242.66 918.337 6241.32L850.033 6235.17C843.032 6234.54 837 6240.06 837 6247.09C837 6251.88 834.132 6256.22 829.715 6258.09L778.072 6280.02C769.028 6283.86 758.865 6284.14 749.627 6280.79C734.245 6275.21 724 6260.6 724 6244.24V6229.82C724 6221.79 726.415 6213.95 730.931 6207.31Z" fill="white" stroke="#BDBDBD" stroke-width="4"/>
<path d="M5406.03 6241.5H5376.85C5357.54 6241.5 5340.98 6227.69 5337.51 6208.69L5335.7 6198.83C5334.6 6192.79 5331.47 6187.31 5326.82 6183.31C5315.02 6173.14 5314.32 6155.1 5325.28 6144.04L5360.86 6108.15C5362.29 6106.72 5363.81 6105.4 5365.44 6104.19L5420.99 6062.97C5423.65 6061 5426.55 6059.36 5429.61 6058.1L5485.94 6034.93C5492.21 6032.35 5497.72 6028.22 5501.96 6022.93L5514.49 6007.26C5526.76 5991.92 5522.96 5969.33 5506.35 5958.85C5499.37 5954.44 5491 5952.82 5482.88 5954.3L5360.97 5976.5C5353.8 5977.81 5347.11 5981.06 5341.64 5985.89L5237.94 6077.6C5232.11 6082.75 5224.9 6086.1 5217.19 6087.22L5173.48 6093.57C5171.5 6093.85 5169.49 6093.87 5167.51 6093.61L5151.69 6091.56C5136.3 6089.56 5127.02 6108.11 5137.85 6119.23C5140.83 6122.29 5142.5 6126.39 5142.5 6130.66V6136.89C5142.5 6147.01 5137.67 6156.53 5129.49 6162.5L5118.25 6170.7C5103.19 6181.7 5082.51 6180.82 5068.43 6168.58L5067.2 6167.52C5056.81 6158.48 5042.5 6155.43 5029.33 6159.44L4991.26 6171.01C4981.76 6173.9 4973.68 6180.22 4968.58 6188.74L4953.41 6214.08C4943.81 6230.12 4946.6 6250.66 4960.12 6263.56L4982.26 6284.68C4994.41 6296.28 4998.02 6314.24 4991.3 6329.64L4979.25 6357.2C4977.43 6361.37 4976.33 6365.82 4976.01 6370.35L4969.71 6458.05C4969.57 6460.01 4969.6 6461.98 4969.81 6463.94L4974.08 6504.48C4975.1 6514.19 4986.62 6518.74 4994 6512.36C4998.79 6508.21 5005.97 6508.47 5010.45 6512.95L5024.84 6527.34C5030.44 6532.94 5037.81 6536.4 5045.7 6537.14L5077.09 6540.06C5087 6540.99 5096.91 6538.18 5104.87 6532.19L5121.65 6519.54C5127.76 6514.94 5135.05 6512.19 5142.67 6511.61L5217.6 6505.87C5225.05 6505.3 5232.51 6506.83 5239.14 6510.29L5274.52 6528.74C5289.26 6536.42 5307.21 6534.19 5319.62 6523.14L5360.52 6486.71C5362.17 6485.24 5363.94 6483.91 5365.81 6482.73L5415.81 6451.27C5427.44 6443.94 5434.5 6431.16 5434.5 6417.41V6367.95C5434.5 6364.99 5434.83 6362.04 5435.48 6359.16L5449.71 6296.01C5452.42 6284.01 5449.45 6271.43 5441.67 6261.91L5437 6256.19C5429.41 6246.89 5418.03 6241.5 5406.03 6241.5Z" fill="white" stroke="#BDBDBD" stroke-width="4"/>
<path d="M819.001 5373C818.45 5369.7 833.797 5356.9 848.802 5345.38C860.222 5336.62 875.577 5335.23 888.648 5341.26L965.662 5376.81C969.529 5378.59 973.087 5380.98 976.2 5383.89L1034.17 5438.02C1037.69 5441.31 1040.59 5445.22 1042.73 5449.54L1072.26 5509.34C1077.2 5519.32 1077.74 5530.91 1073.77 5541.32L1051.69 5599.13C1049.59 5604.64 1046.29 5609.62 1042.04 5613.71L981.228 5672.15C974.917 5678.22 966.791 5682.04 958.096 5683.05L887.171 5691.23C882.754 5691.74 878.454 5692.98 874.446 5694.91L849.898 5706.69C837.786 5712.5 823.566 5711.85 812.04 5704.95L752.78 5669.46C750.598 5668.16 748.546 5666.65 746.651 5664.95L694.963 5618.68C684.447 5609.27 679.669 5595.01 682.393 5581.16L699.024 5496.59C700.634 5488.4 704.765 5480.92 710.837 5475.2L745 5443C770 5421.67 819.801 5377.8 819.001 5373Z" fill="white" stroke="#BDBDBD" stroke-width="4"/>
<path d="M6262.25 4209.64L6237.74 4184.87C6230.23 4177.27 6219.99 4173 6209.3 4173H6206.53C6198.06 4173 6189.81 4175.69 6182.97 4180.67L6162.83 4195.34C6159.96 4197.44 6157.37 4199.91 6155.15 4202.69L6138.95 4222.94C6134.77 4228.16 6132.5 4234.64 6132.5 4241.32V4244.97C6132.5 4253.87 6137.53 4262.02 6145.5 4266C6153.47 4269.98 6158.5 4278.13 6158.5 4287.03V4292.87C6158.5 4308.63 6147.34 4322.18 6131.87 4325.21L6108.16 4329.84C6098.33 4331.76 6090.55 4339.29 6088.3 4349.05C6086 4359.01 6089.9 4369.39 6098.21 4375.36L6099.6 4376.36C6107.87 4382.31 6112.25 4392.28 6111.04 4402.39L6105.02 4452.75C6103.41 4466.18 6113.9 4478 6127.43 4478C6139.89 4478 6150 4488.11 6150 4500.57V4525.85C6150 4530.89 6148.86 4535.85 6146.66 4540.38L6145.56 4542.63C6138.29 4557.58 6144.27 4575.6 6159.03 4583.24C6168.35 4588.07 6174.55 4597.34 6175.46 4607.8L6177.4 4630.08C6177.8 4634.66 6178.98 4639.14 6180.9 4643.32L6212.06 4711.11C6214.01 4715.34 6216.67 4719.19 6219.94 4722.5L6238.42 4741.23C6247.56 4750.49 6260.63 4754.73 6273.47 4752.59L6308.45 4746.76C6313.44 4745.93 6318.22 4744.16 6322.55 4741.54L6408.97 4689.33C6410.99 4688.11 6413.1 4687.08 6415.3 4686.23L6418.48 4685.01C6430.71 4680.3 6439.86 4669.91 6442.97 4657.19L6457.33 4598.53C6459.88 4588.14 6468.2 4580.16 6478.69 4578.06L6483.8 4577.04C6487.15 4576.37 6490.63 4576.96 6493.57 4578.69L6494.68 4579.34C6503.45 4584.5 6514.5 4578.18 6514.5 4568.01C6514.5 4563.91 6516.41 4560.04 6519.67 4557.55L6539.18 4542.66C6552.33 4532.62 6557.94 4515.53 6553.3 4499.65L6544.5 4469.5L6533.82 4443.62C6532.28 4439.9 6530.19 4436.42 6527.61 4433.32L6518.16 4421.95C6509.63 4411.67 6496.52 4406.33 6483.23 4407.73L6476.69 4408.41C6466.91 4409.43 6457.09 4406.82 6449.12 4401.07L6435.97 4391.58C6427.05 4385.14 6421.18 4375.33 6419.72 4364.43L6412 4306.5L6400.47 4262.94C6396.52 4248.01 6384.33 4236.69 6369.15 4233.85L6332.5 4227L6285.76 4221.21C6276.85 4220.1 6268.56 4216.03 6262.25 4209.64Z" fill="white" stroke="#BDBDBD" stroke-width="4"/>
<path d="M7420.33 2906.46L7331.95 2898.71C7319.67 2897.63 7308.58 2890.96 7301.88 2880.62L7288.72 2860.33C7285.03 2854.64 7283.52 2847.8 7284.47 2841.08C7286.86 2824.14 7273.71 2809 7256.6 2809H7206.77C7202.73 2809 7198.82 2807.53 7195.79 2804.87C7189.37 2799.26 7179.75 2799.39 7173.49 2805.18L7151.5 2825.5L7094.5 2874.5L7019.87 2937.25C7017.3 2939.41 7014.47 2941.24 7011.44 2942.69L6935.71 2979.06C6930.31 2981.65 6924.39 2983 6918.39 2983H6861.34C6850.87 2983 6840.81 2978.89 6833.33 2971.56L6807.62 2946.34C6798.72 2937.62 6794.4 2925.24 6795.93 2912.88L6796.86 2905.32C6798.22 2894.27 6804.13 2884.3 6813.15 2877.79L6852.41 2849.45C6855.12 2847.49 6858.08 2845.88 6861.2 2844.66L6897.48 2830.41C6905.61 2827.23 6912.46 2821.47 6917.01 2814.03L6945.29 2767.71C6948.39 2762.63 6950.32 2756.93 6950.94 2751.02L6960.68 2657.8C6961.22 2652.72 6960.16 2647.61 6957.65 2643.17L6943.41 2617.87C6940.54 2612.79 6944.22 2606.5 6950.05 2606.5C6955.5 2606.5 6959.19 2600.96 6957.1 2595.94L6955.12 2591.18C6954.39 2589.42 6953.21 2587.88 6951.71 2586.71L6927.33 2567.71C6922.51 2563.95 6918.61 2559.14 6915.94 2553.64L6905.97 2533.11C6899.01 2518.78 6901.22 2501.67 6911.6 2489.58L6931.26 2466.69C6935.04 2462.28 6939.74 2458.75 6945.02 2456.35L7006.11 2428.5C7012.59 2425.56 7019.73 2424.38 7026.81 2425.11L7066.85 2429.25C7074.77 2430.06 7082.27 2433.23 7088.38 2438.33L7125.13 2469.01C7134.24 2476.61 7139.5 2487.86 7139.5 2499.72V2549.5V2639.23C7139.5 2646.28 7141.37 2653.21 7144.91 2659.31L7184.5 2727.5L7190.17 2737.59C7196.55 2748.96 7208.57 2756 7221.61 2756C7224.53 2756 7227.43 2756.35 7230.26 2757.05L7261.34 2764.74C7268.63 2766.54 7276.29 2766.26 7283.43 2763.91L7300.55 2758.28C7305.15 2756.77 7309.43 2754.44 7313.19 2751.41L7341.38 2728.65C7346.39 2724.61 7352.29 2721.84 7358.6 2720.56L7409.05 2710.4C7412.01 2709.8 7414.89 2708.87 7417.64 2707.63L7466.69 2685.43C7476.48 2681 7487.64 2680.69 7497.66 2684.58L7519.93 2693.23C7522.97 2694.4 7525.85 2695.95 7528.51 2697.82L7553.8 2715.66C7560.12 2720.11 7564.92 2726.39 7567.58 2733.65C7569.82 2739.78 7573.61 2745.23 7578.57 2749.47L7606.28 2773.14C7614.42 2780.09 7619.43 2790.01 7620.2 2800.68L7621.73 2821.98C7622.82 2837.02 7615.35 2851.39 7602.42 2859.15L7571.08 2877.95C7566.09 2880.95 7560.5 2882.82 7554.71 2883.43L7511.5 2888L7432.55 2905.65C7428.54 2906.54 7424.42 2906.82 7420.33 2906.46Z" fill="white" stroke="#BDBDBD" stroke-width="4"/>
<path d="M2182 853.5L2153.81 815.358C2150.01 810.224 2144.84 806.268 2138.9 803.948C2131.53 801.074 2123.39 800.869 2115.89 803.369L2091.85 811.384C2089.62 812.127 2087.33 812.672 2085.01 813.013L2022.25 822.229C2018.77 822.741 2015.36 823.711 2012.13 825.115L1932.89 859.53C1930.63 860.508 1928.48 861.691 1926.44 863.065L1904.53 877.853C1894.98 884.302 1888.67 894.558 1887.23 905.994L1886.33 913.062C1884.58 926.985 1875.65 938.968 1862.81 944.639L1791.42 976.178C1784.29 979.324 1776.41 980.323 1768.73 979.053L1720.24 971.036C1718.08 970.679 1715.9 970.5 1713.72 970.5H1694.74C1686.76 970.5 1678.97 972.884 1672.36 977.346L1657.96 987.066C1648.16 993.68 1641.79 1004.29 1640.56 1016.05L1636.9 1050.96C1636.31 1056.59 1634.53 1062.03 1631.68 1066.92L1595.43 1129.17C1591.87 1135.28 1590 1142.23 1590 1149.3V1189.04C1590 1192.66 1589.51 1196.27 1588.54 1199.76L1574 1252L1508.5 1412L1472.89 1474.87C1469.68 1480.54 1465.13 1485.34 1459.65 1488.85L1420.53 1513.88C1418.85 1514.96 1417.24 1516.16 1415.74 1517.48L1345.39 1579.09C1342.81 1581.35 1339.94 1583.28 1336.87 1584.81L1235.74 1635.15C1230 1638.01 1225.03 1642.21 1221.25 1647.39L1184.93 1697.18C1180.72 1702.96 1178.13 1709.75 1177.44 1716.86L1176.74 1723.98C1175.1 1740.79 1184.18 1756.82 1199.45 1764.04L1230 1778.49C1241.34 1783.85 1254.53 1783.58 1265.64 1777.77L1282.29 1769.06C1288.01 1766.06 1294.37 1764.5 1300.83 1764.5H1312.51C1319.07 1764.5 1325.53 1762.89 1331.31 1759.81L1390.69 1728.19C1396.47 1725.11 1402.93 1723.5 1409.49 1723.5H1432.89C1435.62 1723.5 1438.35 1723.22 1441.02 1722.66L1510.2 1708.3C1521.8 1705.89 1531.73 1698.47 1537.33 1688.02L1538.38 1686.05C1541.73 1679.8 1546.69 1674.55 1552.74 1670.84L1584.05 1651.64C1587.99 1649.23 1591.48 1646.16 1594.36 1642.56L1638.7 1587.24C1641.22 1584.1 1643.25 1580.59 1644.72 1576.84L1660.1 1537.65C1662.34 1531.96 1665.85 1526.86 1670.37 1522.73L1687.92 1506.7C1694.46 1500.74 1698.83 1492.77 1700.35 1484.06L1712 1417.5L1725.74 1351.73C1727.53 1343.15 1732.09 1335.39 1738.72 1329.66L1772.74 1300.21C1777.83 1295.81 1781.73 1290.19 1784.07 1283.88L1789.03 1270.5C1790.99 1265.23 1794.04 1260.42 1797.97 1256.41L1839.07 1214.5C1841.35 1212.18 1843.9 1210.14 1846.68 1208.43L1926.67 1159.24C1928.56 1158.08 1930.53 1157.08 1932.57 1156.25L2005.04 1126.81C2008 1125.61 2011.1 1124.76 2014.26 1124.3L2066.56 1116.6C2071.48 1115.87 2076.22 1114.24 2080.54 1111.77L2121.06 1088.67C2125.32 1086.24 2129.98 1084.62 2134.83 1083.88L2151.22 1081.38C2159.22 1080.15 2166.66 1076.53 2172.56 1070.99L2191.88 1052.85C2199.93 1045.29 2204.5 1034.74 2204.5 1023.69V991.085C2204.5 984.465 2206.14 977.949 2209.28 972.121L2218.73 954.577C2223.11 946.444 2224.54 937.046 2222.77 927.978L2217.24 899.528C2215.78 892.001 2212.18 885.054 2206.88 879.514L2182 853.5Z" fill="white" stroke="#BDBDBD" stroke-width="4"/>
<path d="M1830.27 2558L1750.01 2544.38C1740.95 2542.84 1731.63 2544.47 1723.63 2548.99L1636.5 2598.26C1631.56 2601.05 1627.27 2604.87 1623.91 2609.45L1596.27 2647.22C1594.43 2649.73 1592.3 2652.02 1589.94 2654.04L1571.56 2669.7C1565.96 2674.47 1561.79 2680.7 1559.5 2687.69L1556.67 2696.34C1554.59 2702.68 1550.96 2708.4 1546.11 2712.98L1518 2739.5L1483.99 2772.66C1480.04 2776.51 1476.93 2781.14 1474.85 2786.26L1466.26 2807.42C1464.76 2811.12 1462.72 2814.57 1460.2 2817.66L1406.5 2883.5L1385.1 2906.81C1377.4 2915.2 1373.64 2926.48 1374.77 2937.81L1379.51 2985.57C1380.16 2992.09 1382.4 2998.35 1386.04 3003.8L1401.79 3027.43C1404.89 3032.09 1406.99 3037.35 1407.93 3042.87L1409.71 3053.24C1411.78 3065.39 1419.35 3075.91 1430.22 3081.74L1492.64 3115.24C1498.46 3118.37 1504.95 3120 1511.56 3120H1579.42C1584.43 3120 1589.39 3119.06 1594.05 3117.23L1621.55 3106.43C1626.47 3104.49 1630.95 3101.61 1634.75 3097.93L1708 3027L1756.23 2977.86C1759.39 2974.64 1761.98 2970.92 1763.89 2966.83L1801.63 2886.41C1802.54 2884.47 1803.61 2882.61 1804.81 2880.84L1852.29 2811.33C1856.66 2804.93 1859 2797.35 1859 2789.59C1859 2782.35 1861.04 2775.24 1864.9 2769.1L1895.54 2720.27C1901.27 2711.15 1903.07 2700.09 1900.54 2689.62L1881.65 2611.41C1880.24 2605.55 1877.51 2600.08 1873.68 2595.41L1854.48 2572.05C1848.37 2564.6 1839.77 2559.61 1830.27 2558Z" fill="white" stroke="#BDBDBD" stroke-width="4"/>
<path fill-rule="evenodd" clip-rule="evenodd" d="M7208.82 614.942C7197.8 617.842 7186.07 615.905 7176.56 609.617L7165.23 602.119C7160.19 598.78 7154.27 597 7148.22 597C7142.52 597 7136.93 598.583 7132.07 601.572L7130.07 602.799C7123.61 606.777 7115.86 608.091 7108.44 606.463C7102.62 605.185 7096.54 605.714 7091.03 607.981L7071.59 615.968C7065.95 618.285 7060.99 621.988 7057.17 626.733C7052.81 632.131 7047 636.166 7040.42 638.358L7022.19 644.437C7015.2 646.767 7008.99 650.983 7004.24 656.619L6991.79 671.405C6988.95 674.779 6986.68 678.598 6985.09 682.71L6971.65 717.364C6969.57 722.725 6966.36 727.575 6962.24 731.583L6943.05 750.24C6936.3 756.799 6932.5 765.809 6932.5 775.218C6932.5 785.249 6936.82 794.793 6944.36 801.407L6951.1 807.321C6957.53 812.958 6965.59 816.388 6974.11 817.108L6996.5 819H7026.51C7032.43 819 7038.27 817.686 7043.62 815.154L7112.38 782.606C7117.4 780.232 7122.88 779 7128.43 779C7138.1 779 7147.4 775.264 7154.38 768.572L7156.96 766.102C7163.77 759.578 7168.05 750.859 7169.05 741.483L7175.33 682.938C7176.09 675.779 7178.78 668.96 7183.1 663.199L7188.47 656.038C7192.43 650.761 7197.63 646.545 7203.61 643.765L7221.98 635.227C7227.26 632.772 7233.02 631.5 7238.84 631.5H7282.11C7285.69 631.5 7289.25 631.98 7292.7 632.927L7296.08 633.856C7306.86 636.816 7315.91 644.154 7321.04 654.093L7335.81 682.728C7336.93 684.905 7338.25 686.974 7339.75 688.909L7367.73 724.977C7374.88 734.196 7385.7 739.833 7397.36 740.411L7434.28 742.245C7444.08 742.731 7453.36 746.803 7460.36 753.686L7466.64 759.869C7475.67 768.758 7479.94 781.507 7478.18 794.055C7477.09 801.806 7473.74 809.129 7468.56 815L7446.44 840.094C7444.16 842.687 7442.22 845.565 7440.67 848.657L7433.59 862.814C7430.9 868.202 7427.02 872.911 7422.25 876.592L7339.52 940.443C7338.18 941.472 7336.67 942.253 7335.06 942.746L7328.18 944.852C7321.27 946.969 7314.57 940.997 7315.89 933.887C7316.99 927.965 7312.44 922.5 7306.42 922.5H7281C7278.67 922.5 7276.35 922.764 7274.08 923.288L7225.39 934.526C7221.16 935.502 7217.11 937.16 7213.42 939.435L7120.94 996.344C7117.01 998.763 7112.69 1000.48 7108.17 1001.43L7064.5 1010.57C7055.9 1012.37 7049 1018.81 7046.61 1027.27C7045.55 1031.03 7043.58 1034.47 7040.86 1037.28L7019.44 1059.43C7016.82 1062.13 7013.84 1064.45 7010.58 1066.32L6916.39 1120.34C6912.16 1122.76 6907.53 1124.39 6902.73 1125.15L6897.25 1126.01C6893.12 1126.67 6889.14 1128.07 6885.52 1130.17L6870.84 1138.65C6869.39 1139.49 6868.5 1141.03 6868.5 1142.7C6868.5 1145.68 6871.25 1147.9 6874.17 1147.27L6877.75 1146.5C6882.51 1145.47 6887 1149.1 6887 1153.96V1155C6887 1158.79 6884.35 1162.07 6880.65 1162.87L6874.82 1164.13C6870.88 1164.99 6866.78 1163.78 6863.93 1160.93C6860.37 1157.38 6854.97 1156.45 6850.43 1158.61L6818.1 1174.04C6815.38 1175.34 6812.89 1177.06 6810.72 1179.14C6805.44 1184.18 6798.43 1187 6791.13 1187H6788.58C6781.68 1187 6774.94 1189.06 6769.22 1192.91L6739.96 1212.6C6731.03 1218.61 6724.9 1227.97 6722.96 1238.56L6722.81 1239.37C6721.94 1244.08 6720.23 1248.61 6717.77 1252.72L6715.39 1256.68C6712.49 1261.51 6708.61 1265.67 6704 1268.89L6604.59 1338.34C6599.28 1342.06 6594.94 1347.01 6591.97 1352.77L6583.89 1368.4C6581.98 1372.11 6580.65 1376.1 6579.97 1380.22L6568 1452.5L6565.84 1467.32C6564.64 1475.57 6560.9 1483.23 6555.13 1489.25L6537.04 1508.12C6531.79 1513.59 6528.2 1520.45 6526.7 1527.88L6521.75 1552.38C6519.67 1562.71 6513.59 1571.79 6504.84 1577.67L6489.99 1587.64C6485.7 1590.52 6482.01 1594.2 6479.13 1598.48L6404.43 1709.2C6400.54 1714.97 6395.22 1719.62 6388.98 1722.7L6369.25 1732.44C6362.55 1735.75 6356.91 1740.86 6352.97 1747.21L6350 1752L6349.79 1752.28C6345.98 1757.35 6343.44 1763.26 6342.36 1769.51L6340.41 1780.88C6339.16 1788.15 6335.92 1794.94 6331.05 1800.48L6317 1816.5L6287.05 1855.13C6284.04 1859.01 6280.34 1862.3 6276.14 1864.85L6239.5 1887L6171.23 1929.49C6166.46 1932.46 6162.37 1936.41 6159.23 1941.06L6129.06 1985.72C6126.7 1989.22 6123.8 1992.32 6120.47 1994.91L6071.5 2033L6053.56 2044.13C6046.68 2048.4 6042.5 2055.92 6042.5 2064.02C6042.5 2069.8 6040.36 2075.38 6036.49 2079.68L5993 2128L5953.51 2175.75C5951.18 2178.57 5949.25 2181.7 5947.77 2185.04L5934.91 2214.05C5933.31 2217.66 5931.18 2221.02 5928.6 2224.01L5861.52 2301.59C5859.84 2303.53 5857.98 2305.3 5855.97 2306.88L5845.65 2314.99C5840.82 2318.78 5838 2324.59 5838 2330.73C5838 2336.9 5835.16 2342.72 5830.3 2346.51L5756.24 2404.3C5753.1 2406.75 5750.34 2409.66 5748.06 2412.93L5671.5 2522.5L5644.93 2553.65C5643.31 2555.54 5641.88 2557.59 5640.64 2559.76L5628.56 2580.9C5627.19 2583.29 5626.07 2585.82 5625.22 2588.45L5580.67 2726.37C5579.89 2728.78 5578.88 2731.12 5577.66 2733.35L5547.96 2787.34C5546.99 2789.11 5546.15 2790.95 5545.45 2792.85L5456.25 3036.23C5455.09 3039.4 5453.53 3042.41 5451.61 3045.18L5437.08 3066.24C5432.47 3072.92 5430 3080.85 5430 3088.96V3117.52C5430 3120.5 5429.67 3123.47 5429.01 3126.37L5400.41 3252.49C5399.8 3255.16 5399.47 3257.88 5399.42 3260.61L5396.55 3418.08C5396.52 3420.02 5396.34 3421.96 5396.02 3423.88L5387.28 3476.74C5386.11 3483.78 5383.08 3490.39 5378.5 3495.87L5315.94 3570.67C5314.65 3572.22 5313.47 3573.86 5312.43 3575.59C5303.74 3589.9 5291.23 3610.42 5281.61 3625.98C5273.27 3639.48 5266.33 3656.88 5264.07 3672.59C5263.18 3678.82 5260.58 3686.17 5256.92 3691.29L5224.68 3736.3C5216.77 3747.33 5203.81 3753.61 5190.25 3752.96L5155.14 3751.27C5144.79 3750.78 5135.03 3746.28 5127.92 3738.73L5103.34 3712.59C5095.79 3704.56 5085.24 3700 5074.21 3700H5047.09C5040.47 3700 5033.95 3701.65 5028.11 3704.79L4973.38 3734.29C4968.84 3736.74 4964.81 3740.05 4961.52 3744.03L4957.54 3748.85C4951.09 3756.66 4941.91 3761.73 4931.87 3763.04L4921.67 3764.37C4916.06 3765.1 4910.37 3763.88 4905.55 3760.92C4901.91 3758.68 4897.75 3757.42 4893.48 3757.27L4804.83 3754.15C4801.95 3754.05 4799.09 3753.64 4796.3 3752.92L4711.89 3731.26C4708.64 3730.42 4705.3 3730 4701.95 3730H4670.52C4665.55 3730 4660.62 3729.07 4655.99 3727.27L4593 3702.73C4588.37 3700.93 4583.45 3700 4578.48 3700H4540.38C4532.94 3700 4525.65 3702.07 4519.32 3705.99L4496.67 3720.01C4490.35 3723.93 4483.06 3726 4475.62 3726H4445.96C4437.53 3726 4429.32 3723.34 4422.5 3718.4L4409.81 3709.21C4405.97 3706.43 4401.66 3704.35 4397.08 3703.07L4374.79 3696.87C4362.65 3693.49 4352.81 3684.58 4348.24 3672.83L4345.19 3665C4342.77 3658.76 4338.82 3653.24 4333.71 3648.93L4264.5 3590.5L4075.79 3415.27C4071 3410.82 4067.38 3405.28 4065.23 3399.11L4047.7 3348.75C4045.92 3343.64 4043.12 3338.94 4039.46 3334.94L3977 3266.5L3930.9 3221.8C3928.64 3219.61 3926.13 3217.69 3923.42 3216.09L3897.72 3200.87C3885.8 3193.82 3878.5 3181.01 3878.5 3167.17C3878.5 3163.74 3878.95 3160.32 3879.84 3157.01L3893.3 3106.92C3895.38 3099.15 3895.08 3090.94 3892.43 3083.35L3876.94 3038.98C3875.32 3034.37 3872.88 3030.09 3869.72 3026.35L3850.77 3003.92C3846.65 2999.05 3843.76 2993.25 3842.33 2987.03L3831.84 2941.18C3831.28 2938.73 3830.49 2936.34 3829.48 2934.04L3782.46 2826.77C3780.5 2822.29 3777.74 2818.22 3774.31 2814.74L3749.07 2789.14C3746.04 2786.07 3743.53 2782.52 3741.63 2778.65L3698.97 2691.55C3697.33 2688.2 3695.23 2685.09 3692.73 2682.33L3682.05 2670.51C3676.18 2664.02 3672.6 2655.78 3671.86 2647.06L3670.92 2635.94C3670.32 2628.78 3667.79 2621.91 3663.61 2616.06L3587.5 2509.5L3545.09 2429.39C3543.37 2426.15 3541.21 2423.15 3538.68 2420.5L3503.56 2383.69C3501.86 2381.9 3500.32 2379.96 3498.97 2377.89L3456.46 2312.52C3455.16 2310.51 3454.03 2308.39 3453.1 2306.17L3436.33 2266.15C3433.81 2260.14 3429.87 2254.84 3424.83 2250.7L3408.11 2236.96C3405.71 2234.99 3403.55 2232.75 3401.67 2230.28L3379 2200.5L3355.44 2159.51C3354.48 2157.84 3353.4 2156.24 3352.21 2154.73L3331.66 2128.57C3328.25 2124.24 3325.78 2119.25 3324.4 2113.92L3321.5 2102.76C3320.5 2098.94 3318.95 2095.29 3316.89 2091.93L3291.89 2051.12C3288.04 2044.83 3286 2037.6 3286 2030.22V1983.19C3286 1979.85 3284.75 1976.63 3282.5 1974.17C3278.38 1969.65 3277.84 1962.93 3281.18 1957.81L3294.48 1937.47C3298.73 1930.97 3301 1923.36 3301 1915.58V1898.23C3301 1892.8 3302.1 1887.43 3304.25 1882.44L3325.5 1833L3343.5 1793.5L3407.96 1689.3C3409.32 1687.1 3410.88 1685.05 3412.63 1683.16L3455.84 1636.5C3462.69 1629.11 3466.5 1619.4 3466.5 1609.32V1597.88C3466.5 1589.5 3469.13 1581.34 3474.01 1574.54L3503.53 1533.44C3505.17 1531.15 3507.05 1529.05 3509.14 1527.15L3552.89 1487.46C3553.91 1486.53 3554.5 1485.21 3554.5 1483.83C3554.5 1481.36 3552.66 1479.27 3550.2 1478.96L3543.04 1478.07C3537.86 1477.42 3533.56 1473.75 3532.1 1468.73L3531.46 1466.52C3529.92 1461.2 3531.14 1455.46 3534.71 1451.22L3545.04 1438.97C3548.34 1435.05 3553.68 1433.52 3558.56 1435.08L3560.48 1435.69C3562.11 1436.21 3563.49 1437.3 3564.39 1438.75C3566.93 1442.85 3572.71 1443.32 3575.88 1439.68L3585.2 1428.98C3586.06 1428 3586.81 1426.92 3587.43 1425.77L3605.72 1391.86C3608.86 1386.05 3613.39 1381.1 3618.91 1377.46L3656 1353L3720.19 1307.41C3723.38 1305.15 3726.88 1303.37 3730.59 1302.12L3762.81 1291.27C3770.11 1288.81 3776.55 1284.29 3781.35 1278.26L3821.88 1227.29C3823.48 1225.28 3823.8 1222.53 3822.71 1220.2C3821.4 1217.43 3822.12 1214.13 3824.46 1212.15L3836.34 1202.09C3838.48 1200.28 3841.59 1200.19 3843.83 1201.87C3846.22 1203.67 3849.57 1203.43 3851.68 1201.32L3877.88 1175.12C3882.23 1170.77 3887.53 1167.48 3893.37 1165.51L3916.46 1157.71C3921.76 1155.92 3926.63 1153.04 3930.74 1149.26L3955.5 1126.5L4006.69 1085.08C4009.22 1083.03 4011.49 1080.69 4013.45 1078.1L4091.17 975.239C4093.05 972.755 4095.21 970.498 4097.61 968.516L4128.58 942.929C4135.95 936.845 4140.89 928.325 4142.52 918.912L4142.73 917.74C4143.89 911.025 4146.75 904.718 4151.03 899.418L4167.81 878.652C4171.88 873.625 4174.66 867.69 4175.93 861.353L4179.18 845.084C4179.72 842.369 4180.55 839.717 4181.64 837.172L4187.21 824.176C4190.26 817.057 4190.17 808.982 4186.97 801.931C4185.34 798.352 4184.5 794.466 4184.5 790.534V789.567C4184.5 780.896 4188.02 772.595 4194.25 766.565L4204.62 756.523C4211.41 749.96 4221.05 747.272 4230.25 749.38L4233.73 750.177C4237.47 751.035 4241.39 750.631 4244.88 749.028L4248.21 747.497C4253.89 744.889 4256.9 738.61 4255.39 732.551C4255.13 731.521 4255 730.463 4255 729.402V729.072C4255 722.683 4258.88 716.935 4264.8 714.544L4279.82 708.486C4282.26 707.498 4284.81 706.757 4287.4 706.274L4322.87 699.675C4325.28 699.226 4327.73 699 4330.19 699H4371.22C4376.68 699 4382.08 697.882 4387.1 695.714L4467.96 660.745C4470.65 659.585 4473.45 658.723 4476.32 658.173L4491.01 655.36C4493.99 654.789 4496.9 653.879 4499.68 652.648L4593.05 611.298C4597.96 609.124 4603.27 608 4608.64 608H4615.85C4623.49 608 4630.69 604.384 4635.25 598.25C4639.81 592.116 4647 588.5 4654.65 588.5H4717.45C4722.16 588.5 4726.55 586.127 4729.13 582.189C4732.35 577.273 4738.31 574.9 4744.03 576.252L4758.08 579.573C4760.68 580.189 4763.35 580.5 4766.03 580.5H4778.65C4781.82 580.5 4784.94 579.648 4787.67 578.033C4792.02 575.467 4797.25 574.871 4802.06 576.396L4810.16 578.967C4813.04 579.88 4815 582.552 4815 585.572V589.25C4815 591.045 4816.45 592.5 4818.25 592.5C4820.04 592.5 4821.5 591.045 4821.5 589.25V586.5C4821.5 583.186 4824.18 580.5 4827.5 580.5H4840.37C4841.45 580.5 4842.54 580.593 4843.6 580.779L4849.08 581.732C4859.29 583.508 4869.79 581.252 4878.37 575.441L4887.68 569.134C4893.14 565.435 4899.43 563.144 4905.99 562.464L4958.86 556.982C4961.83 556.673 4964.8 557.569 4967.1 559.468C4970.14 561.968 4974.27 562.686 4977.97 561.357L4986.93 558.141C4989.95 557.055 4993.14 556.5 4996.36 556.5H5014L5086.79 552.719C5089.59 552.573 5092.36 552.135 5095.07 551.41L5187.39 526.672C5192.71 525.246 5198.3 525.165 5203.67 526.434C5210.7 528.099 5218.08 527.43 5224.69 524.529L5240.36 517.656C5242.12 516.886 5243.93 516.244 5245.77 515.733L5304.5 499.5L5385 483L5451.02 470.535C5454.65 469.848 5458.18 468.661 5461.49 467.006L5509.54 442.979C5514.71 440.392 5520.57 439.5 5526.28 440.429C5534.34 441.742 5542.57 439.408 5548.74 434.06L5548.98 433.848C5552.28 430.988 5556.19 428.934 5560.42 427.849C5583.67 421.89 5620.81 412.5 5623 412.5C5624.93 412.5 5643.71 410.764 5658.16 409.393C5664.29 408.811 5670.48 409.717 5676.19 412.046L5701.23 422.257C5703.7 423.267 5706.55 422.368 5707.99 420.118C5709.21 418.23 5711.44 417.258 5713.65 417.655L5741.16 422.593C5746.34 423.522 5751.64 423.422 5756.78 422.299L5781 417L5810.22 409.694C5813.39 408.901 5816.65 408.5 5819.92 408.5H5884.06C5888.6 408.5 5893.05 407.266 5896.95 404.931C5901.22 402.369 5906.16 401.138 5911.13 401.396L5974.32 404.679C5978.41 404.892 5982.45 405.733 5986.29 407.172L6005.71 414.453C6010.2 416.137 6014.96 417 6019.75 417H6140.5L6180.61 413.495C6188.05 412.845 6195.53 414.292 6202.19 417.673L6215.59 424.472C6222.07 427.762 6229.33 429.223 6236.58 428.698L6301.5 424H6330.38C6335.97 424 6340.5 428.528 6340.5 434.114C6340.5 438.978 6343.96 443.153 6348.74 444.054L6389.71 451.778C6396.05 452.973 6402.05 448.483 6402.69 442.067C6403.51 433.846 6412.77 429.434 6419.67 433.971L6422 435.5L6439.5 449.628C6446.62 455.369 6455.48 458.5 6464.63 458.5H6488.5L6503.71 460.129C6509.31 460.73 6513.4 454.964 6510.99 449.874C6509.14 445.957 6511.13 441.3 6515.25 439.941L6550.8 428.194C6559.04 425.472 6567.94 425.504 6576.17 428.284L6588.18 432.347C6594.3 434.418 6600.83 434.975 6607.22 433.969L6670.5 424L6714.53 420.755C6716.84 420.585 6719.15 420.616 6721.45 420.846L6746.98 423.398C6750.97 423.797 6755 423.593 6758.93 422.794L6804.21 413.583C6809.35 412.539 6814.64 412.575 6819.76 413.687C6829.52 415.809 6839.72 413.977 6848.13 408.594L6852.48 405.814C6857.43 402.644 6863.02 400.605 6868.85 399.842L6936.5 391H6972.54C6983.96 391 6994.84 386.114 7002.43 377.575L7010.28 368.748C7012.96 365.728 7016.81 364 7020.85 364H7027C7031.42 364 7035 360.418 7035 356C7035 351.582 7038.58 348 7043 348H7050.85C7054.81 348 7058.62 349.476 7061.54 352.139L7091 379L7120.19 401.094C7125.32 404.974 7131.31 407.561 7137.65 408.635L7143.04 409.549C7152.37 411.132 7161.97 409.351 7170.12 404.523L7184.5 396L7203.99 383.003C7207.82 380.451 7212.54 379.616 7217.01 380.7L7217.19 380.744C7222.93 382.135 7227.45 386.545 7228.99 392.245C7229.65 394.713 7230.89 396.988 7232.61 398.884L7247.27 415.09C7248.42 416.358 7249.73 417.465 7251.17 418.383C7256.67 421.881 7260 427.946 7260 434.463V491.109C7260 493.697 7260.25 496.279 7260.75 498.818L7269.78 544.811C7270.59 548.912 7270.75 553.113 7270.25 557.263L7267.67 578.879C7267.23 582.596 7266.12 586.205 7264.41 589.535C7260.33 597.469 7253.07 603.297 7244.44 605.567L7208.82 614.942ZM5000.45 761.068C4998.59 754.104 4993.55 748.429 4986.86 745.764L4953.12 732.336C4948.42 730.462 4943.4 729.5 4938.33 729.5H4850.89C4848.3 729.5 4845.72 729.751 4843.18 730.249L4631.82 771.751C4629.28 772.249 4626.7 772.5 4624.11 772.5H4571.65C4562.49 772.5 4553.61 775.64 4546.5 781.396L4434.7 871.796C4431.26 874.579 4428.3 877.915 4425.95 881.666L4401 921.5L4290 1060.5L4237.37 1144.99C4236.12 1146.99 4235.06 1149.1 4234.18 1151.29L4193.86 1252.1C4192.96 1254.36 4192.4 1256.73 4192.2 1259.15C4190.47 1280.65 4215.62 1293.51 4232.03 1279.5L4238.05 1274.36C4240.66 1272.14 4242.83 1269.45 4244.44 1266.43L4261 1235.5L4331.01 1114.3C4332.66 1111.44 4333.95 1108.4 4334.86 1105.22L4344.28 1072.04C4345.42 1068.04 4347.17 1064.24 4349.48 1060.78L4409.62 970.562C4412.51 966.229 4416.22 962.502 4420.54 959.59L4496.06 908.646C4497.68 907.55 4499.39 906.575 4501.15 905.729L4624.08 846.876C4626.68 845.629 4629.42 844.668 4632.23 844.009L4798.5 805.055C4801.49 804.354 4804.55 804 4807.62 804H4941.01C4944.32 804 4947.62 803.589 4950.83 802.777L4975.06 796.642C4981.85 794.925 4987.92 791.111 4992.41 785.745L4995.9 781.572C5000.66 775.884 5002.36 768.235 5000.45 761.068ZM4210.55 1899.96C4216.71 1895.09 4224.17 1892.15 4232 1891.5L4280.62 1887.45C4287.87 1886.84 4295.04 1889.31 4300.39 1894.24C4307.25 1900.58 4310.18 1910.12 4308.06 1919.22L4294.62 1976.76C4292.91 1984.1 4293.3 1991.78 4295.76 1998.91L4307.57 2033.13C4310.13 2040.54 4310.45 2048.55 4308.5 2056.15L4304.26 2072.59C4303.42 2075.85 4303 2079.2 4303 2082.57V2157.4C4303 2161.11 4302.48 2164.81 4301.46 2168.39L4276 2257.5L4251.02 2332.88C4249.03 2338.87 4245.66 2344.31 4241.16 2348.75L4168.89 2420.15C4166.64 2422.38 4164.66 2424.86 4162.99 2427.55L4131.35 2478.63C4126.59 2486.32 4119.37 2492.16 4110.86 2495.22L4059.72 2513.57C4051.34 2516.58 4041.98 2514.48 4035.69 2508.19C4029.46 2501.96 4027.34 2492.71 4030.23 2484.39L4037.77 2462.68C4042.8 2448.2 4039.11 2432.11 4028.27 2421.27L4014.21 2407.22C4006.71 2399.71 4002.5 2389.54 4002.5 2378.93V2284.72C4002.5 2282.25 4002.73 2279.77 4003.19 2277.34L4017.42 2201.56C4017.81 2199.52 4018.35 2197.52 4019.04 2195.57L4048.23 2113.31C4050.06 2108.16 4052.92 2103.44 4056.64 2099.43L4115.02 2036.7C4117 2034.57 4118.74 2032.24 4120.21 2029.74L4180.69 1926.97C4183.21 1922.69 4186.5 1918.92 4190.39 1915.85L4210.55 1899.96ZM4532 1429.57C4524.07 1416.12 4524.7 1399.28 4533.6 1386.46L4544.91 1370.17C4547.29 1366.74 4550.18 1363.71 4553.5 1361.18L4564.3 1352.93C4571.85 1347.17 4577.1 1338.9 4579.12 1329.61L4579.51 1327.79C4581.44 1318.87 4580.24 1309.56 4576.11 1301.42C4570.1 1289.6 4570.4 1275.56 4576.9 1264L4595.13 1231.6C4597.03 1228.22 4599.42 1225.13 4602.2 1222.44L4635.31 1190.46C4639.35 1186.56 4645.36 1185.5 4650.49 1187.8C4658.32 1191.29 4661.08 1201.01 4656.27 1208.1L4645.12 1224.56C4639.53 1232.79 4639.1 1243.48 4644.01 1252.13C4649.41 1261.67 4660.18 1266.82 4671 1265.05L4710.78 1258.53C4712.92 1258.18 4715.09 1258 4717.26 1258H4777.83C4780.6 1258 4783.36 1258.29 4786.07 1258.86L4825.42 1267.14C4828.13 1267.71 4830.89 1268 4833.66 1268H4858.44C4872.71 1268 4885.9 1260.39 4893.05 1248.04L4902.21 1232.23C4906.61 1224.62 4913.4 1218.68 4921.52 1215.31L4936.65 1209.05C4941.5 1207.03 4946.7 1206 4951.96 1206H5021.5C5024.7 1206 5051.5 1187.67 5064.5 1178.5L5083.96 1161.47C5094.26 1152.46 5108.45 1149.34 5121.58 1153.19L5172 1168L5206.08 1174.12C5221.04 1176.8 5233.18 1187.73 5237.42 1202.33L5251.56 1250.98C5254.48 1261.07 5263.72 1268 5274.22 1268C5284.74 1268 5294 1274.97 5296.9 1285.09L5303.74 1308.9C5306.78 1319.49 5305.31 1330.87 5299.69 1340.35L5277.6 1377.56C5273.93 1383.74 5272 1390.79 5272 1397.98V1427.65C5272 1433.48 5273.27 1439.24 5275.73 1444.52L5277.98 1449.36C5286.11 1466.83 5280.62 1487.61 5264.93 1498.8L5244.92 1513.07C5238.14 1517.9 5230.02 1520.5 5221.7 1520.5H5137L4979.5 1531.5H4894.5L4810.62 1537.19C4807.55 1537.39 4804.47 1537.25 4801.43 1536.75L4675.22 1516.03C4673.07 1515.68 4670.91 1515.5 4668.74 1515.5H4589.88C4585 1515.5 4580.16 1514.61 4575.6 1512.86L4570.63 1510.96C4556.98 1505.74 4547.27 1493.5 4545.29 1479.02L4541.59 1451.96C4540.87 1446.71 4539.11 1441.65 4536.42 1437.08L4532 1429.57ZM4807.34 1680.69C4810.41 1678.59 4813.91 1677.21 4817.58 1676.66L4939.05 1658.44C4941.01 1658.15 4943 1658 4944.98 1658H5078L5230.52 1645.49C5234.48 1645.17 5238.47 1645.43 5242.36 1646.28L5312.18 1661.59C5323.5 1664.08 5333.18 1671.34 5338.73 1681.51L5343.92 1691.02C5350.23 1702.59 5350.44 1716.52 5344.47 1728.27L5338.68 1739.68C5337.56 1741.89 5336.24 1743.99 5334.73 1745.95L5318.9 1766.56C5313.46 1773.65 5305.8 1778.71 5297.14 1780.94L5270.55 1787.77C5262.39 1789.87 5255.1 1794.49 5249.72 1800.98L5226.03 1829.55C5224.68 1831.18 5223.46 1832.92 5222.38 1834.74L5212.64 1851.22C5207.41 1860.07 5205.79 1870.58 5208.11 1880.59L5211.88 1896.89C5214.19 1906.84 5212.2 1917.29 5206.41 1925.69C5202.23 1931.75 5200 1938.94 5200 1946.3V2040.82C5200 2054.07 5206.56 2066.46 5217.51 2073.9L5266.32 2107.08C5272.95 2111.59 5280.79 2114 5288.81 2114H5311.5C5332.17 2114 5349.44 2129.76 5351.33 2150.35L5354 2179.5V2230.64C5354 2247.39 5343.57 2262.36 5327.87 2268.16L5268.73 2290.03C5261.71 2292.63 5254.12 2293.2 5246.8 2291.7L5208.48 2283.82C5205.83 2283.27 5203.13 2283 5200.43 2283H5142.94C5134.22 2283 5125.74 2280.15 5118.79 2274.89L5088.71 2252.11C5081.76 2246.85 5073.28 2244 5064.56 2244H5050.51C5037.63 2244 5025.54 2237.8 5018.03 2227.35L4922.49 2094.44C4919.2 2089.86 4916.91 2084.65 4915.78 2079.13L4899.44 1999.45C4898.16 1993.24 4898.38 1986.81 4900.08 1980.71L4911.58 1939.3C4915.26 1926.04 4911.88 1911.83 4902.61 1901.66L4846 1839.5L4822.61 1806.14C4815.88 1796.54 4813.7 1784.46 4816.66 1773.1L4819.56 1761.95C4822.66 1750.06 4819.8 1737.41 4811.9 1728.01L4802.43 1716.74C4793.09 1705.63 4795.37 1688.89 4807.34 1680.69ZM5078.62 2688.75C5068.58 2690.2 5059.47 2695.4 5053.12 2703.31L5035.91 2724.75C5032.34 2729.2 5027.87 2732.83 5022.78 2735.41L5011.93 2740.9C4998.48 2747.71 4990 2761.51 4990 2776.59V2868.16C4990 2880.66 4995.84 2892.44 5005.79 2900.01L5055.03 2937.44C5060.26 2941.42 5066.39 2944.05 5072.88 2945.09L5168.5 2960.5L5223.93 2970.64C5237.09 2973.05 5250.59 2968.72 5259.89 2959.1L5281.08 2937.17C5285.94 2932.15 5292.03 2928.48 5298.75 2926.54L5304.18 2924.98C5310.94 2923.03 5317.07 2919.33 5321.94 2914.25L5342.28 2893.08C5347.96 2887.17 5351.68 2879.66 5352.95 2871.57L5359.26 2831.35C5361.56 2816.68 5355.54 2801.95 5343.64 2793.08L5288.5 2752L5214.96 2708.63C5212 2706.88 5208.82 2705.53 5205.51 2704.59L5133.67 2684.31C5128.28 2682.79 5122.64 2682.41 5117.1 2683.21L5078.62 2688.75ZM5407.88 2635.65C5415.09 2632.96 5421.22 2627.97 5425.32 2621.45L5447.34 2586.43C5448.78 2584.15 5450.44 2582.02 5452.3 2580.07L5516 2513.5L5581.5 2451.38C5588.78 2444.47 5591.26 2433.9 5587.81 2424.48C5584.55 2415.59 5576.58 2409.29 5567.19 2408.17L5485.15 2398.36C5480.42 2397.79 5475.63 2398.07 5471 2399.19L5332.62 2432.64C5328.89 2433.54 5325.31 2434.97 5321.99 2436.89L5262.79 2471.13C5256.7 2474.65 5249.8 2476.5 5242.77 2476.5H5184.11C5180.39 2476.5 5176.68 2475.98 5173.1 2474.96L5051 2440L4956.36 2425.17C4947.39 2423.77 4938.2 2425.45 4930.32 2429.96L4888.25 2454C4884.77 2455.99 4881.61 2458.49 4878.87 2461.42L4775.5 2572L4759.85 2592.52C4755.37 2598.39 4749.35 2602.91 4742.47 2605.57L4626.86 2650.27C4621.35 2652.4 4616.39 2655.72 4612.32 2659.99L4420.99 2860.86C4419 2862.95 4417.25 2865.24 4415.75 2867.7L4382.49 2922.52C4373.18 2937.88 4351.81 2940.17 4339.44 2927.15C4336.84 2924.41 4333.7 2922.25 4330.21 2920.79L4304.51 2910.03C4285.5 2902.07 4263.56 2909.85 4253.82 2928L4245.5 2943.5L4235.65 2967.2C4233.25 2972.99 4229.52 2978.13 4224.77 2982.21L4205.73 2998.56C4192.02 3010.33 4187.9 3029.82 4195.68 3046.13L4268.42 3198.59C4270.13 3202.18 4272.36 3205.49 4275.05 3208.41L4296.62 3231.92C4305.05 3241.11 4317.29 3245.84 4329.71 3244.71L4392.25 3239.02C4396.06 3238.68 4399.91 3238.88 4403.66 3239.62L4445.67 3247.96C4458.42 3250.49 4471.6 3246.67 4481.02 3237.72L4530.71 3190.48C4534.85 3186.54 4538.11 3181.76 4540.24 3176.45L4553 3144.82C4558 3132.44 4556.48 3118.37 4548.96 3107.34L4539.56 3093.53C4533.45 3084.57 4523.96 3078.46 4513.26 3076.63L4483.42 3071.52C4479.49 3070.84 4475.69 3069.59 4472.14 3067.79L4443.52 3053.33C4435.42 3049.23 4428.94 3042.5 4425.17 3034.23L4421.29 3025.72C4419.12 3020.96 4415.94 3016.73 4411.98 3013.32C4398.91 3002.09 4395.6 2983.19 4404.07 2968.18L4416.04 2946.97C4417.34 2944.66 4418.87 2942.49 4420.6 2940.48L4497.91 2851C4499.63 2849 4501.55 2847.19 4503.63 2845.57L4643.61 2736.74C4645.53 2735.25 4647.59 2733.94 4649.75 2732.82L4815.87 2646.66C4819.27 2644.9 4822.4 2642.65 4825.17 2640L4926.5 2542.63C4932.67 2536.7 4940.58 2532.91 4949.06 2531.8L5081.02 2514.67C5086.93 2513.9 5092.94 2514.46 5098.61 2516.32L5253.5 2567L5350.77 2610.54C5355.87 2612.82 5360.43 2616.14 5364.16 2620.29L5369.52 2626.25C5379.16 2636.96 5394.37 2640.69 5407.88 2635.65Z" fill="white" stroke="#BDBDBD" stroke-width="4"/>
<path d="M4544.56 2077L4524.88 2025.48H4533.92L4549.36 2067.64L4564.8 2025.48H4573.84L4554.32 2077H4544.56ZM4582.02 2031.16V2023.96H4591.54V2031.16H4582.02ZM4582.74 2077V2045.72H4576.98L4577.78 2039.08H4591.46V2077H4582.74ZM4614.27 2077.8C4611.66 2077.8 4609.15 2077.61 4606.75 2077.24C4604.41 2076.87 4602.46 2076.41 4600.91 2075.88V2068.52C4602.73 2069.21 4604.73 2069.75 4606.91 2070.12C4609.1 2070.49 4611.18 2070.68 4613.15 2070.68C4616.14 2070.68 4618.27 2070.41 4619.55 2069.88C4620.83 2069.35 4621.47 2068.31 4621.47 2066.76C4621.47 2065.64 4621.07 2064.76 4620.27 2064.12C4619.53 2063.48 4618.38 2062.89 4616.83 2062.36C4615.34 2061.83 4613.42 2061.19 4611.07 2060.44C4608.83 2059.69 4606.89 2058.89 4605.23 2058.04C4603.58 2057.13 4602.3 2055.99 4601.39 2054.6C4600.49 2053.21 4600.03 2051.4 4600.03 2049.16C4600.03 2045.69 4601.29 2043.03 4603.79 2041.16C4606.3 2039.24 4610.33 2038.28 4615.87 2038.28C4618.06 2038.28 4620.14 2038.44 4622.11 2038.76C4624.09 2039.08 4625.77 2039.48 4627.15 2039.96V2047.24C4625.66 2046.65 4624.01 2046.2 4622.19 2045.88C4620.43 2045.56 4618.78 2045.4 4617.23 2045.4C4614.46 2045.4 4612.35 2045.64 4610.91 2046.12C4609.53 2046.6 4608.83 2047.56 4608.83 2049C4608.83 2050.49 4609.55 2051.56 4610.99 2052.2C4612.49 2052.79 4614.86 2053.61 4618.11 2054.68C4621.1 2055.59 4623.47 2056.55 4625.23 2057.56C4626.99 2058.57 4628.25 2059.8 4628.99 2061.24C4629.79 2062.63 4630.19 2064.44 4630.19 2066.68C4630.19 2070.41 4628.83 2073.21 4626.11 2075.08C4623.39 2076.89 4619.45 2077.8 4614.27 2077.8ZM4652.05 2077.8C4648 2077.8 4644.96 2076.73 4642.93 2074.6C4640.96 2072.41 4639.97 2069.45 4639.97 2065.72V2045.88H4634.37V2039.08H4639.97V2030.36L4648.61 2027.72V2039.08H4658.69L4658.13 2045.88H4648.61V2065.24C4648.61 2067.43 4649.12 2068.97 4650.13 2069.88C4651.14 2070.73 4652.8 2071.16 4655.09 2071.16C4656.53 2071.16 4658.05 2070.89 4659.65 2070.36V2076.52C4657.57 2077.37 4655.04 2077.8 4652.05 2077.8ZM4678.16 2077.8C4675.76 2077.8 4673.52 2077.37 4671.44 2076.52C4669.41 2075.67 4667.79 2074.39 4666.56 2072.68C4665.33 2070.92 4664.72 2068.76 4664.72 2066.2C4664.72 2062.57 4665.95 2059.67 4668.4 2057.48C4670.91 2055.24 4674.75 2054.12 4679.92 2054.12H4692.08V2052.44C4692.08 2050.63 4691.79 2049.19 4691.2 2048.12C4690.67 2047.05 4689.65 2046.28 4688.16 2045.8C4686.72 2045.32 4684.59 2045.08 4681.76 2045.08C4677.28 2045.08 4673.09 2045.75 4669.2 2047.08V2040.6C4670.91 2039.91 4672.99 2039.35 4675.44 2038.92C4677.89 2038.49 4680.53 2038.28 4683.36 2038.28C4688.91 2038.28 4693.12 2039.4 4696 2041.64C4698.93 2043.88 4700.4 2047.53 4700.4 2052.6V2077H4692.96L4692.4 2073.16C4690.85 2074.65 4688.93 2075.8 4686.64 2076.6C4684.4 2077.4 4681.57 2077.8 4678.16 2077.8ZM4680.48 2071.56C4683.09 2071.56 4685.36 2071.13 4687.28 2070.28C4689.25 2069.37 4690.85 2068.17 4692.08 2066.68V2060.04H4680.08C4677.52 2060.04 4675.65 2060.55 4674.48 2061.56C4673.36 2062.52 4672.8 2064.01 4672.8 2066.04C4672.8 2068.01 4673.47 2069.43 4674.8 2070.28C4676.13 2071.13 4678.03 2071.56 4680.48 2071.56ZM4728.51 2077V2025.48H4737.23V2049.16L4759.15 2025.48H4769.23L4750.27 2046.28L4770.03 2077H4760.75L4744.83 2051.8L4737.23 2059.96V2077H4728.51ZM4792.47 2077.8C4785.86 2077.8 4780.74 2076.17 4777.11 2072.92C4773.49 2069.67 4771.67 2064.68 4771.67 2057.96C4771.67 2051.88 4773.22 2047.08 4776.31 2043.56C4779.41 2040.04 4784.1 2038.28 4790.39 2038.28C4796.15 2038.28 4800.47 2039.8 4803.35 2042.84C4806.29 2045.83 4807.75 2049.69 4807.75 2054.44V2061.48H4779.99C4780.42 2065.16 4781.75 2067.69 4783.99 2069.08C4786.23 2070.47 4789.65 2071.16 4794.23 2071.16C4796.15 2071.16 4798.13 2070.97 4800.15 2070.6C4802.18 2070.23 4803.94 2069.75 4805.43 2069.16V2075.56C4803.73 2076.31 4801.75 2076.87 4799.51 2077.24C4797.33 2077.61 4794.98 2077.8 4792.47 2077.8ZM4779.99 2055.8H4800.07V2053.16C4800.07 2050.55 4799.35 2048.52 4797.91 2047.08C4796.47 2045.59 4794.05 2044.84 4790.63 2044.84C4786.58 2044.84 4783.78 2045.72 4782.23 2047.48C4780.74 2049.24 4779.99 2052.01 4779.99 2055.8ZM4820.43 2091.08C4817.55 2091.08 4815.09 2090.71 4813.07 2089.96V2083.48C4813.97 2083.8 4814.8 2084.01 4815.55 2084.12C4816.35 2084.23 4817.15 2084.28 4817.95 2084.28C4819.6 2084.28 4820.93 2084.01 4821.95 2083.48C4822.96 2082.95 4823.84 2082.09 4824.59 2080.92C4825.39 2079.8 4826.24 2078.33 4827.15 2076.52L4810.27 2039.08H4819.31L4831.47 2067.24L4843.79 2039.08H4852.75L4837.31 2074.84C4835.97 2078.04 4834.53 2080.84 4832.99 2083.24C4831.49 2085.69 4829.73 2087.61 4827.71 2089C4825.73 2090.39 4823.31 2091.08 4820.43 2091.08Z" fill="#212121"/>
<path d="M4855.31 3089.4C4852.72 3089.4 4850.58 3088.88 4848.87 3087.84C4847.16 3086.77 4845.98 3085.28 4845.31 3083.36C4844.67 3081.41 4844.63 3079.13 4845.19 3076.52C4845.8 3073.69 4846.74 3071.27 4847.99 3069.24C4849.27 3067.19 4850.96 3065.61 4853.07 3064.52C4855.2 3063.4 4857.83 3062.84 4860.95 3062.84C4862.44 3062.84 4863.78 3062.96 4864.95 3063.2C4866.15 3063.41 4867.24 3063.71 4868.23 3064.08L4867.43 3067.88C4866.44 3067.45 4865.36 3067.13 4864.19 3066.92C4863.04 3066.68 4861.8 3066.56 4860.47 3066.56C4857.27 3066.56 4854.83 3067.41 4853.15 3069.12C4851.47 3070.83 4850.28 3073.29 4849.59 3076.52C4848.95 3079.53 4849.12 3081.83 4850.11 3083.4C4851.12 3084.95 4853.24 3085.72 4856.47 3085.72C4857.7 3085.72 4858.95 3085.63 4860.23 3085.44C4861.51 3085.23 4862.75 3084.91 4863.95 3084.48L4863.11 3088.32C4861.96 3088.67 4860.75 3088.93 4859.47 3089.12C4858.19 3089.31 4856.8 3089.4 4855.31 3089.4ZM4867.26 3089L4871.26 3070.04H4875.26L4875.06 3072.24C4876.07 3071.65 4877.24 3071.12 4878.58 3070.64C4879.94 3070.16 4881.26 3069.83 4882.54 3069.64L4881.86 3072.96C4881.08 3073.09 4880.23 3073.29 4879.3 3073.56C4878.39 3073.8 4877.51 3074.08 4876.66 3074.4C4875.8 3074.69 4875.08 3075 4874.5 3075.32L4871.62 3089H4867.26ZM4888.57 3089.4C4886.86 3089.4 4885.42 3089.11 4884.25 3088.52C4883.1 3087.91 4882.32 3086.93 4881.89 3085.6C4881.46 3084.24 4881.46 3082.47 4881.89 3080.28C4882.34 3078.07 4883.13 3076.17 4884.25 3074.6C4885.4 3073 4886.74 3071.77 4888.29 3070.92C4889.86 3070.07 4891.53 3069.64 4893.29 3069.64C4894.44 3069.64 4895.41 3069.77 4896.21 3070.04C4897.01 3070.31 4897.76 3070.75 4898.45 3071.36L4898.73 3070.04H4903.09L4899.09 3089H4895.37L4895.45 3087.12C4894.44 3087.89 4893.38 3088.47 4892.29 3088.84C4891.2 3089.21 4889.96 3089.4 4888.57 3089.4ZM4890.45 3086.12C4892.4 3086.12 4894.16 3085.45 4895.73 3084.12L4897.73 3074.72C4897.25 3074.16 4896.7 3073.73 4896.09 3073.44C4895.5 3073.12 4894.73 3072.96 4893.77 3072.96C4891.85 3072.96 4890.25 3073.6 4888.97 3074.88C4887.69 3076.13 4886.8 3077.95 4886.29 3080.32C4885.97 3081.81 4885.88 3082.99 4886.01 3083.84C4886.17 3084.67 4886.6 3085.25 4887.29 3085.6C4888.01 3085.95 4889.06 3086.12 4890.45 3086.12ZM4904.33 3089L4908.33 3070.04H4912.33L4912.13 3072.04C4913.11 3071.37 4914.25 3070.81 4915.53 3070.36C4916.81 3069.88 4918.17 3069.64 4919.61 3069.64C4921.93 3069.64 4923.55 3070.25 4924.49 3071.48C4925.42 3072.71 4925.65 3074.45 4925.17 3076.72L4922.57 3089H4918.25L4920.81 3076.92C4921.1 3075.45 4921.03 3074.43 4920.61 3073.84C4920.18 3073.25 4919.1 3072.96 4917.37 3072.96C4916.38 3072.96 4915.37 3073.16 4914.33 3073.56C4913.29 3073.96 4912.38 3074.48 4911.61 3075.12L4908.69 3089H4904.33ZM4936.35 3089.4C4934.27 3089.4 4932.52 3089.04 4931.11 3088.32C4929.72 3087.6 4928.75 3086.51 4928.19 3085.04C4927.63 3083.57 4927.59 3081.72 4928.07 3079.48C4928.71 3076.44 4929.92 3074.04 4931.71 3072.28C4933.52 3070.52 4936.12 3069.64 4939.51 3069.64C4941.4 3069.64 4942.91 3070 4944.03 3070.72C4945.15 3071.44 4945.91 3072.41 4946.31 3073.64C4946.73 3074.87 4946.79 3076.23 4946.47 3077.72L4945.75 3081.24H4931.87C4931.68 3083.08 4932.03 3084.35 4932.91 3085.04C4933.79 3085.73 4935.47 3086.08 4937.95 3086.08C4938.91 3086.08 4939.91 3085.99 4940.95 3085.8C4941.99 3085.61 4942.92 3085.37 4943.75 3085.08L4943.07 3088.28C4942.13 3088.65 4941.09 3088.93 4939.95 3089.12C4938.8 3089.31 4937.6 3089.4 4936.35 3089.4ZM4932.47 3078.4H4942.51L4942.79 3077.08C4943.08 3075.77 4942.96 3074.76 4942.43 3074.04C4941.92 3073.29 4940.76 3072.92 4938.95 3072.92C4936.92 3072.92 4935.43 3073.36 4934.47 3074.24C4933.53 3075.12 4932.87 3076.51 4932.47 3078.4ZM4957.61 3089L4963.05 3063.24H4974.53C4976.45 3063.24 4977.97 3063.61 4979.09 3064.36C4980.21 3065.11 4980.95 3066.13 4981.33 3067.44C4981.7 3068.72 4981.71 3070.19 4981.37 3071.84C4980.81 3074.4 4979.65 3076.45 4977.89 3078C4976.13 3079.55 4973.75 3080.32 4970.77 3080.32H4963.81L4961.97 3089H4957.61ZM4964.53 3076.88H4970.69C4972.61 3076.88 4974.06 3076.43 4975.05 3075.52C4976.06 3074.61 4976.71 3073.39 4977.01 3071.84C4977.38 3069.97 4977.33 3068.64 4976.85 3067.84C4976.37 3067.04 4975.21 3066.64 4973.37 3066.64H4966.69L4964.53 3076.88ZM4990.16 3089.4C4987.01 3089.4 4984.76 3088.55 4983.4 3086.84C4982.07 3085.13 4981.73 3082.69 4982.4 3079.52C4983.07 3076.35 4984.33 3073.91 4986.2 3072.2C4988.07 3070.49 4990.79 3069.64 4994.36 3069.64C4997.61 3069.64 4999.89 3070.49 5001.2 3072.2C5002.53 3073.91 5002.87 3076.35 5002.2 3079.52C5001.53 3082.69 5000.27 3085.13 4998.4 3086.84C4996.53 3088.55 4993.79 3089.4 4990.16 3089.4ZM4990.96 3085.72C4992.96 3085.72 4994.48 3085.24 4995.52 3084.28C4996.56 3083.29 4997.32 3081.71 4997.8 3079.52C4998.25 3077.33 4998.21 3075.76 4997.68 3074.8C4997.15 3073.84 4995.79 3073.36 4993.6 3073.36C4991.63 3073.36 4990.11 3073.84 4989.04 3074.8C4988 3075.76 4987.25 3077.33 4986.8 3079.52C4986.32 3081.71 4986.36 3083.29 4986.92 3084.28C4987.51 3085.24 4988.85 3085.72 4990.96 3085.72ZM5010.1 3066.08L5010.86 3062.48H5015.62L5014.86 3066.08H5010.1ZM5005.62 3089L5008.94 3073.36H5006.06L5007.14 3070.04H5013.98L5009.98 3089H5005.62ZM5015.07 3089L5019.07 3070.04H5023.07L5022.87 3072.04C5023.86 3071.37 5024.99 3070.81 5026.27 3070.36C5027.55 3069.88 5028.91 3069.64 5030.35 3069.64C5032.67 3069.64 5034.3 3070.25 5035.23 3071.48C5036.16 3072.71 5036.39 3074.45 5035.91 3076.72L5033.31 3089H5028.99L5031.55 3076.92C5031.84 3075.45 5031.78 3074.43 5031.35 3073.84C5030.92 3073.25 5029.84 3072.96 5028.11 3072.96C5027.12 3072.96 5026.11 3073.16 5025.07 3073.56C5024.03 3073.96 5023.12 3074.48 5022.35 3075.12L5019.43 3089H5015.07ZM5045.35 3089.4C5043.33 3089.4 5041.93 3088.87 5041.15 3087.8C5040.38 3086.71 5040.19 3085.23 5040.59 3083.36L5042.71 3073.44H5039.91L5040.63 3070.04H5043.43L5044.35 3065.68L5048.95 3064.36L5047.75 3070.04H5052.79L5051.79 3073.44H5047.03L5044.99 3083.12C5044.73 3084.35 5044.79 3085.15 5045.19 3085.52C5045.59 3085.89 5046.39 3086.08 5047.59 3086.08C5048.34 3086.08 5049.13 3085.95 5049.95 3085.68L5049.31 3088.76C5048.14 3089.19 5046.82 3089.4 5045.35 3089.4ZM5062.13 3089.4C5060.05 3089.4 5058.3 3089.04 5056.89 3088.32C5055.5 3087.6 5054.53 3086.51 5053.97 3085.04C5053.41 3083.57 5053.37 3081.72 5053.85 3079.48C5054.49 3076.44 5055.7 3074.04 5057.49 3072.28C5059.3 3070.52 5061.9 3069.64 5065.29 3069.64C5067.18 3069.64 5068.69 3070 5069.81 3070.72C5070.93 3071.44 5071.69 3072.41 5072.09 3073.64C5072.51 3074.87 5072.57 3076.23 5072.25 3077.72L5071.53 3081.24H5057.65C5057.46 3083.08 5057.81 3084.35 5058.69 3085.04C5059.57 3085.73 5061.25 3086.08 5063.73 3086.08C5064.69 3086.08 5065.69 3085.99 5066.73 3085.8C5067.77 3085.61 5068.7 3085.37 5069.53 3085.08L5068.85 3088.28C5067.91 3088.65 5066.87 3088.93 5065.73 3089.12C5064.58 3089.31 5063.38 3089.4 5062.13 3089.4ZM5058.25 3078.4H5068.29L5068.57 3077.08C5068.86 3075.77 5068.74 3074.76 5068.21 3074.04C5067.7 3073.29 5066.54 3072.92 5064.73 3072.92C5062.7 3072.92 5061.21 3073.36 5060.25 3074.24C5059.31 3075.12 5058.65 3076.51 5058.25 3078.4Z" fill="#757575"/>
<path d="M4525.04 6789L4529.94 6765.8H4540.28C4542.01 6765.8 4543.38 6766.14 4544.39 6766.81C4545.39 6767.48 4546.07 6768.41 4546.4 6769.58C4546.74 6770.74 4546.75 6772.06 4546.44 6773.55C4545.93 6775.85 4544.89 6777.7 4543.3 6779.09C4541.72 6780.49 4539.58 6781.18 4536.89 6781.18H4530.63L4528.97 6789H4525.04ZM4531.27 6778.09H4536.82C4538.55 6778.09 4539.86 6777.68 4540.75 6776.86C4541.66 6776.04 4542.25 6774.94 4542.51 6773.55C4542.85 6771.87 4542.8 6770.67 4542.37 6769.94C4541.94 6769.22 4540.89 6768.86 4539.23 6768.86H4533.22L4531.27 6778.09ZM4554.36 6789.36C4551.52 6789.36 4549.49 6788.59 4548.27 6787.05C4547.07 6785.52 4546.77 6783.32 4547.37 6780.46C4547.97 6777.61 4549.11 6775.41 4550.79 6773.87C4552.47 6772.33 4554.92 6771.57 4558.14 6771.57C4561.07 6771.57 4563.12 6772.33 4564.3 6773.87C4565.5 6775.41 4565.8 6777.61 4565.2 6780.46C4564.6 6783.32 4563.46 6785.52 4561.78 6787.05C4560.1 6788.59 4557.62 6789.36 4554.36 6789.36ZM4555.08 6786.05C4556.88 6786.05 4558.25 6785.61 4559.18 6784.75C4560.12 6783.86 4560.8 6782.43 4561.24 6780.46C4561.65 6778.49 4561.61 6777.08 4561.13 6776.21C4560.65 6775.35 4559.42 6774.92 4557.45 6774.92C4555.68 6774.92 4554.31 6775.35 4553.35 6776.21C4552.41 6777.08 4551.74 6778.49 4551.33 6780.46C4550.9 6782.43 4550.93 6783.86 4551.44 6784.75C4551.97 6785.61 4553.18 6786.05 4555.08 6786.05ZM4567.25 6789L4570.86 6771.93H4574.46L4574.28 6773.91C4575.19 6773.38 4576.25 6772.9 4577.45 6772.47C4578.67 6772.03 4579.86 6771.73 4581.01 6771.57L4580.4 6774.56C4579.71 6774.68 4578.94 6774.86 4578.1 6775.1C4577.28 6775.31 4576.49 6775.56 4575.72 6775.85C4574.95 6776.12 4574.3 6776.39 4573.77 6776.68L4571.18 6789H4567.25ZM4586.65 6789.36C4584.82 6789.36 4583.56 6788.88 4582.86 6787.92C4582.17 6786.93 4582 6785.6 4582.36 6783.92L4584.27 6774.99H4581.75L4582.4 6771.93H4584.92L4585.75 6768L4589.89 6766.81L4588.81 6771.93H4593.35L4592.45 6774.99H4588.16L4586.32 6783.7C4586.08 6784.81 4586.14 6785.53 4586.5 6785.87C4586.86 6786.2 4587.58 6786.37 4588.66 6786.37C4589.34 6786.37 4590.04 6786.25 4590.79 6786.01L4590.21 6788.78C4589.16 6789.17 4587.97 6789.36 4586.65 6789.36ZM4609.55 6789.36C4606.72 6789.36 4604.69 6788.59 4603.46 6787.05C4602.26 6785.52 4601.96 6783.32 4602.56 6780.46C4603.16 6777.61 4604.3 6775.41 4605.98 6773.87C4607.66 6772.33 4610.11 6771.57 4613.33 6771.57C4616.26 6771.57 4618.31 6772.33 4619.49 6773.87C4620.69 6775.41 4620.99 6777.61 4620.39 6780.46C4619.79 6783.32 4618.65 6785.52 4616.97 6787.05C4615.29 6788.59 4612.82 6789.36 4609.55 6789.36ZM4610.27 6786.05C4612.07 6786.05 4613.44 6785.61 4614.38 6784.75C4615.31 6783.86 4616 6782.43 4616.43 6780.46C4616.84 6778.49 4616.8 6777.08 4616.32 6776.21C4615.84 6775.35 4614.62 6774.92 4612.65 6774.92C4610.87 6774.92 4609.5 6775.35 4608.54 6776.21C4607.6 6777.08 4606.93 6778.49 4606.52 6780.46C4606.09 6782.43 4606.13 6783.86 4606.63 6784.75C4607.16 6785.61 4608.37 6786.05 4610.27 6786.05ZM4623.49 6789L4626.44 6774.99H4623.96L4624.61 6771.93H4627.09L4627.56 6769.84C4627.92 6768.13 4628.64 6766.76 4629.72 6765.73C4630.8 6764.67 4632.36 6764.15 4634.41 6764.15C4635.1 6764.15 4635.73 6764.21 4636.28 6764.33C4636.83 6764.42 4637.34 6764.57 4637.79 6764.76L4637.18 6767.57C4636.46 6767.3 4635.73 6767.17 4634.98 6767.17C4633.85 6767.17 4633.02 6767.38 4632.5 6767.78C4631.99 6768.19 4631.63 6768.89 4631.42 6769.87L4630.98 6771.93H4635.45L4634.62 6774.99H4630.34L4627.38 6789H4623.49ZM4494.47 6826L4499.37 6802.8H4510.61C4512.72 6802.8 4514.26 6803.34 4515.22 6804.42C4516.21 6805.5 4516.49 6807.03 4516.09 6809C4515.82 6810.25 4515.34 6811.3 4514.65 6812.17C4513.97 6813.01 4513.17 6813.64 4512.23 6814.08C4513.29 6814.39 4514.06 6814.95 4514.54 6815.77C4515.04 6816.56 4515.13 6817.74 4514.79 6819.3C4513.83 6823.77 4510.97 6826 4506.22 6826H4494.47ZM4501.21 6812.71H4507.98C4509.3 6812.71 4510.31 6812.41 4511.01 6811.81C4511.7 6811.18 4512.16 6810.35 4512.38 6809.32C4512.54 6808.53 4512.58 6807.87 4512.48 6807.34C4512.41 6806.81 4512.11 6806.42 4511.58 6806.15C4511.06 6805.89 4510.2 6805.76 4509.03 6805.76H4502.69L4501.21 6812.71ZM4499.01 6823.12H4506C4507.39 6823.12 4508.47 6822.83 4509.24 6822.25C4510.01 6821.65 4510.55 6820.62 4510.86 6819.16C4511.13 6817.96 4511 6817.07 4510.47 6816.49C4509.96 6815.89 4508.87 6815.59 4507.19 6815.59H4500.6L4499.01 6823.12ZM4517.2 6826L4520.8 6808.93H4524.4L4524.22 6810.91C4525.13 6810.38 4526.19 6809.9 4527.39 6809.47C4528.62 6809.03 4529.81 6808.73 4530.96 6808.57L4530.35 6811.56C4529.65 6811.68 4528.88 6811.86 4528.04 6812.1C4527.22 6812.31 4526.43 6812.56 4525.66 6812.85C4524.89 6813.12 4524.25 6813.39 4523.72 6813.68L4521.12 6826H4517.2ZM4537.51 6826.36C4534.67 6826.36 4532.64 6825.59 4531.42 6824.05C4530.22 6822.52 4529.92 6820.32 4530.52 6817.46C4531.12 6814.61 4532.26 6812.41 4533.94 6810.87C4535.62 6809.33 4538.07 6808.57 4541.29 6808.57C4544.22 6808.57 4546.27 6809.33 4547.45 6810.87C4548.65 6812.41 4548.95 6814.61 4548.35 6817.46C4547.75 6820.32 4546.61 6822.52 4544.93 6824.05C4543.25 6825.59 4540.77 6826.36 4537.51 6826.36ZM4538.23 6823.05C4540.03 6823.05 4541.4 6822.61 4542.33 6821.75C4543.27 6820.86 4543.95 6819.43 4544.39 6817.46C4544.8 6815.49 4544.76 6814.08 4544.28 6813.21C4543.8 6812.35 4542.57 6811.92 4540.61 6811.92C4538.83 6811.92 4537.46 6812.35 4536.5 6813.21C4535.56 6814.08 4534.89 6815.49 4534.48 6817.46C4534.05 6819.43 4534.09 6820.86 4534.59 6821.75C4535.12 6822.61 4536.33 6823.05 4538.23 6823.05ZM4557.32 6826.36C4555.78 6826.36 4554.49 6826.1 4553.43 6825.57C4552.4 6825.02 4551.69 6824.14 4551.31 6822.94C4550.92 6821.71 4550.92 6820.12 4551.31 6818.15C4551.71 6816.15 4552.42 6814.45 4553.43 6813.03C4554.46 6811.59 4555.68 6810.49 4557.07 6809.72C4558.49 6808.95 4559.99 6808.57 4561.57 6808.57C4562.6 6808.57 4563.48 6808.69 4564.2 6808.93C4564.92 6809.17 4565.59 6809.56 4566.22 6810.11L4566.47 6808.93H4570.4L4566.79 6826H4563.44L4563.52 6824.31C4562.6 6825 4561.66 6825.52 4560.67 6825.86C4559.69 6826.19 4558.57 6826.36 4557.32 6826.36ZM4559.01 6823.41C4560.77 6823.41 4562.35 6822.81 4563.77 6821.61L4565.57 6813.14C4565.14 6812.64 4564.64 6812.25 4564.09 6811.99C4563.56 6811.7 4562.87 6811.56 4562 6811.56C4560.27 6811.56 4558.83 6812.13 4557.68 6813.28C4556.53 6814.41 4555.72 6816.05 4555.27 6818.18C4554.98 6819.53 4554.9 6820.58 4555.02 6821.35C4555.16 6822.1 4555.54 6822.63 4556.17 6822.94C4556.82 6823.25 4557.76 6823.41 4559.01 6823.41ZM4578.46 6826.36C4577 6826.36 4575.74 6826.06 4574.68 6825.46C4573.65 6824.84 4572.93 6823.87 4572.52 6822.58C4572.11 6821.28 4572.12 6819.6 4572.56 6817.54C4573.23 6814.46 4574.42 6812.2 4576.12 6810.76C4577.85 6809.3 4579.95 6808.57 4582.43 6808.57C4584.51 6808.57 4586.17 6809.06 4587.4 6810.04L4589.16 6801.72H4593.09L4587.94 6826H4584.59L4584.66 6824.31C4583.75 6825 4582.8 6825.52 4581.81 6825.86C4580.83 6826.19 4579.71 6826.36 4578.46 6826.36ZM4580.16 6823.41C4581.91 6823.41 4583.49 6822.81 4584.91 6821.61L4586.75 6813.07C4585.86 6812.06 4584.55 6811.56 4582.82 6811.56C4581.28 6811.56 4579.96 6812.04 4578.86 6813C4577.75 6813.93 4576.97 6815.46 4576.52 6817.57C4576.09 6819.61 4576.12 6821.1 4576.63 6822.04C4577.15 6822.95 4578.33 6823.41 4580.16 6823.41ZM4597.61 6826L4594.48 6808.93H4598.4L4600.39 6822.18L4607.99 6808.93H4612.16L4601.86 6826H4597.61ZM4616.92 6805.36L4617.6 6802.12H4621.89L4621.2 6805.36H4616.92ZM4612.88 6826L4615.87 6811.92H4613.28L4614.25 6808.93H4620.41L4616.81 6826H4612.88ZM4629.93 6826.36C4628.06 6826.36 4626.48 6826.04 4625.21 6825.39C4623.96 6824.74 4623.08 6823.75 4622.58 6822.43C4622.08 6821.11 4622.04 6819.44 4622.47 6817.43C4623.05 6814.69 4624.14 6812.53 4625.75 6810.94C4627.38 6809.36 4629.72 6808.57 4632.77 6808.57C4634.48 6808.57 4635.84 6808.89 4636.84 6809.54C4637.85 6810.19 4638.54 6811.06 4638.9 6812.17C4639.28 6813.27 4639.33 6814.5 4639.04 6815.84L4638.39 6819.01H4625.89C4625.73 6820.67 4626.04 6821.81 4626.83 6822.43C4627.62 6823.06 4629.14 6823.37 4631.37 6823.37C4632.23 6823.37 4633.13 6823.29 4634.07 6823.12C4635.01 6822.95 4635.85 6822.73 4636.59 6822.47L4635.98 6825.35C4635.14 6825.69 4634.2 6825.94 4633.17 6826.11C4632.14 6826.28 4631.06 6826.36 4629.93 6826.36ZM4626.43 6816.45H4635.48L4635.73 6815.27C4635.99 6814.09 4635.88 6813.18 4635.4 6812.53C4634.95 6811.86 4633.9 6811.52 4632.27 6811.52C4630.44 6811.52 4629.1 6811.92 4628.24 6812.71C4627.39 6813.5 4626.79 6814.75 4626.43 6816.45ZM4642.94 6826L4642.04 6808.93H4645.96L4646.29 6821.35L4651.83 6811.02L4652.27 6808.93H4655.26L4656.34 6821.35L4661.92 6808.93H4665.81L4657.74 6826H4654.18L4652.88 6814.83L4646.83 6826H4642.94Z" fill="#757575"/>
<path d="M3892.41 1779L3897.85 1753.24H3908.29C3911.94 1753.24 3914.52 1754.28 3916.01 1756.36C3917.5 1758.41 3917.76 1761.72 3916.77 1766.28C3915.84 1770.68 3914.26 1773.91 3912.05 1775.96C3909.86 1777.99 3906.84 1779 3902.97 1779H3892.41ZM3897.45 1775.64H3902.85C3904.61 1775.64 3906.09 1775.4 3907.29 1774.92C3908.52 1774.41 3909.54 1773.48 3910.37 1772.12C3911.2 1770.76 3911.88 1768.81 3912.41 1766.28C3912.94 1763.75 3913.16 1761.79 3913.05 1760.4C3912.97 1759.01 3912.45 1758.04 3911.49 1757.48C3910.53 1756.92 3909 1756.64 3906.89 1756.64H3901.49L3897.45 1775.64ZM3927.31 1779.4C3924.16 1779.4 3921.91 1778.55 3920.55 1776.84C3919.21 1775.13 3918.88 1772.69 3919.55 1769.52C3920.21 1766.35 3921.48 1763.91 3923.35 1762.2C3925.21 1760.49 3927.93 1759.64 3931.51 1759.64C3934.76 1759.64 3937.04 1760.49 3938.35 1762.2C3939.68 1763.91 3940.01 1766.35 3939.35 1769.52C3938.68 1772.69 3937.41 1775.13 3935.55 1776.84C3933.68 1778.55 3930.93 1779.4 3927.31 1779.4ZM3928.11 1775.72C3930.11 1775.72 3931.63 1775.24 3932.67 1774.28C3933.71 1773.29 3934.47 1771.71 3934.95 1769.52C3935.4 1767.33 3935.36 1765.76 3934.83 1764.8C3934.29 1763.84 3932.93 1763.36 3930.75 1763.36C3928.77 1763.36 3927.25 1763.84 3926.19 1764.8C3925.15 1765.76 3924.4 1767.33 3923.95 1769.52C3923.47 1771.71 3923.51 1773.29 3924.07 1774.28C3924.65 1775.24 3926 1775.72 3928.11 1775.72ZM3946.12 1779L3942.64 1760.04H3947L3949.2 1774.76L3957.64 1760.04H3962.28L3950.84 1779H3946.12ZM3969.86 1779.4C3967.78 1779.4 3966.03 1779.04 3964.62 1778.32C3963.23 1777.6 3962.26 1776.51 3961.7 1775.04C3961.14 1773.57 3961.1 1771.72 3961.58 1769.48C3962.22 1766.44 3963.43 1764.04 3965.22 1762.28C3967.03 1760.52 3969.63 1759.64 3973.02 1759.64C3974.91 1759.64 3976.42 1760 3977.54 1760.72C3978.66 1761.44 3979.42 1762.41 3979.82 1763.64C3980.24 1764.87 3980.3 1766.23 3979.98 1767.72L3979.26 1771.24H3965.38C3965.19 1773.08 3965.54 1774.35 3966.42 1775.04C3967.3 1775.73 3968.98 1776.08 3971.46 1776.08C3972.42 1776.08 3973.42 1775.99 3974.46 1775.8C3975.5 1775.61 3976.43 1775.37 3977.26 1775.08L3976.58 1778.28C3975.64 1778.65 3974.6 1778.93 3973.46 1779.12C3972.31 1779.31 3971.11 1779.4 3969.86 1779.4ZM3965.98 1768.4H3976.02L3976.3 1767.08C3976.59 1765.77 3976.47 1764.76 3975.94 1764.04C3975.43 1763.29 3974.27 1762.92 3972.46 1762.92C3970.43 1762.92 3968.94 1763.36 3967.98 1764.24C3967.04 1765.12 3966.38 1766.51 3965.98 1768.4ZM4003.04 1779.4C4000.45 1779.4 3998.31 1778.88 3996.6 1777.84C3994.89 1776.77 3993.71 1775.28 3993.04 1773.36C3992.4 1771.41 3992.36 1769.13 3992.92 1766.52C3993.53 1763.69 3994.47 1761.27 3995.72 1759.24C3997 1757.19 3998.69 1755.61 4000.8 1754.52C4002.93 1753.4 4005.56 1752.84 4008.68 1752.84C4010.17 1752.84 4011.51 1752.96 4012.68 1753.2C4013.88 1753.41 4014.97 1753.71 4015.96 1754.08L4015.16 1757.88C4014.17 1757.45 4013.09 1757.13 4011.92 1756.92C4010.77 1756.68 4009.53 1756.56 4008.2 1756.56C4005 1756.56 4002.56 1757.41 4000.88 1759.12C3999.2 1760.83 3998.01 1763.29 3997.32 1766.52C3996.68 1769.53 3996.85 1771.83 3997.84 1773.4C3998.85 1774.95 4000.97 1775.72 4004.2 1775.72C4005.43 1775.72 4006.68 1775.63 4007.96 1775.44C4009.24 1775.23 4010.48 1774.91 4011.68 1774.48L4010.84 1778.32C4009.69 1778.67 4008.48 1778.93 4007.2 1779.12C4005.92 1779.31 4004.53 1779.4 4003.04 1779.4ZM4014.99 1779L4018.99 1760.04H4022.99L4022.79 1762.24C4023.8 1761.65 4024.97 1761.12 4026.31 1760.64C4027.67 1760.16 4028.99 1759.83 4030.27 1759.64L4029.59 1762.96C4028.81 1763.09 4027.96 1763.29 4027.03 1763.56C4026.12 1763.8 4025.24 1764.08 4024.39 1764.4C4023.53 1764.69 4022.81 1765 4022.23 1765.32L4019.35 1779H4014.99ZM4038.1 1779.4C4036.02 1779.4 4034.27 1779.04 4032.86 1778.32C4031.47 1777.6 4030.5 1776.51 4029.94 1775.04C4029.38 1773.57 4029.34 1771.72 4029.82 1769.48C4030.46 1766.44 4031.67 1764.04 4033.46 1762.28C4035.27 1760.52 4037.87 1759.64 4041.26 1759.64C4043.15 1759.64 4044.66 1760 4045.78 1760.72C4046.9 1761.44 4047.66 1762.41 4048.06 1763.64C4048.49 1764.87 4048.54 1766.23 4048.22 1767.72L4047.5 1771.24H4033.62C4033.43 1773.08 4033.78 1774.35 4034.66 1775.04C4035.54 1775.73 4037.22 1776.08 4039.7 1776.08C4040.66 1776.08 4041.66 1775.99 4042.7 1775.8C4043.74 1775.61 4044.67 1775.37 4045.5 1775.08L4044.82 1778.28C4043.89 1778.65 4042.85 1778.93 4041.7 1779.12C4040.55 1779.31 4039.35 1779.4 4038.1 1779.4ZM4034.22 1768.4H4044.26L4044.54 1767.08C4044.83 1765.77 4044.71 1764.76 4044.18 1764.04C4043.67 1763.29 4042.51 1762.92 4040.7 1762.92C4038.67 1762.92 4037.18 1763.36 4036.22 1764.24C4035.29 1765.12 4034.62 1766.51 4034.22 1768.4ZM4059.62 1779.4C4057.54 1779.4 4055.8 1779.04 4054.38 1778.32C4053 1777.6 4052.02 1776.51 4051.46 1775.04C4050.9 1773.57 4050.86 1771.72 4051.34 1769.48C4051.98 1766.44 4053.2 1764.04 4054.98 1762.28C4056.8 1760.52 4059.4 1759.64 4062.78 1759.64C4064.68 1759.64 4066.18 1760 4067.3 1760.72C4068.42 1761.44 4069.18 1762.41 4069.58 1763.64C4070.01 1764.87 4070.06 1766.23 4069.74 1767.72L4069.02 1771.24H4055.14C4054.96 1773.08 4055.3 1774.35 4056.18 1775.04C4057.06 1775.73 4058.74 1776.08 4061.22 1776.08C4062.18 1776.08 4063.18 1775.99 4064.22 1775.8C4065.26 1775.61 4066.2 1775.37 4067.02 1775.08L4066.34 1778.28C4065.41 1778.65 4064.37 1778.93 4063.22 1779.12C4062.08 1779.31 4060.88 1779.4 4059.62 1779.4ZM4055.74 1768.4H4065.78L4066.06 1767.08C4066.36 1765.77 4066.24 1764.76 4065.7 1764.04C4065.2 1763.29 4064.04 1762.92 4062.22 1762.92C4060.2 1762.92 4058.7 1763.36 4057.74 1764.24C4056.81 1765.12 4056.14 1766.51 4055.74 1768.4ZM4071.63 1779L4077.35 1752.04H4081.71L4078.39 1767.64L4087.95 1760.04H4092.95L4083.63 1767.68L4089.39 1779H4084.79L4080.39 1770L4077.39 1772.4L4075.99 1779H4071.63Z" fill="#757575"/>
<path d="M4254.65 4691.8C4246.17 4691.8 4239.75 4689.48 4235.37 4684.84C4231.05 4680.2 4228.89 4673.93 4228.89 4666.04C4228.89 4660.39 4229.8 4655.53 4231.61 4651.48C4233.48 4647.37 4236.31 4644.23 4240.09 4642.04C4243.88 4639.8 4248.71 4638.68 4254.57 4638.68C4257.56 4638.68 4260.28 4638.92 4262.73 4639.4C4265.24 4639.83 4267.56 4640.41 4269.69 4641.16V4648.76C4267.56 4647.91 4265.27 4647.27 4262.81 4646.84C4260.41 4646.36 4257.88 4646.12 4255.21 4646.12C4248.81 4646.12 4244.28 4647.83 4241.61 4651.24C4239 4654.65 4237.69 4659.59 4237.69 4666.04C4237.69 4672.07 4239.13 4676.65 4242.01 4679.8C4244.89 4682.89 4249.35 4684.44 4255.37 4684.44C4257.83 4684.44 4260.28 4684.25 4262.73 4683.88C4265.24 4683.45 4267.59 4682.81 4269.77 4681.96V4689.64C4267.64 4690.33 4265.32 4690.87 4262.81 4691.24C4260.36 4691.61 4257.64 4691.8 4254.65 4691.8ZM4296.15 4691.8C4289.33 4691.8 4284.31 4690.09 4281.11 4686.68C4277.97 4683.27 4276.39 4678.39 4276.39 4672.04C4276.39 4665.69 4277.99 4660.81 4281.19 4657.4C4284.39 4653.99 4289.38 4652.28 4296.15 4652.28C4302.98 4652.28 4307.99 4653.99 4311.19 4657.4C4314.39 4660.81 4315.99 4665.69 4315.99 4672.04C4315.99 4678.39 4314.39 4683.27 4311.19 4686.68C4308.05 4690.09 4303.03 4691.8 4296.15 4691.8ZM4296.15 4684.44C4300.15 4684.44 4302.98 4683.48 4304.63 4681.56C4306.34 4679.59 4307.19 4676.41 4307.19 4672.04C4307.19 4667.67 4306.34 4664.52 4304.63 4662.6C4302.98 4660.68 4300.15 4659.72 4296.15 4659.72C4292.21 4659.72 4289.38 4660.68 4287.67 4662.6C4286.02 4664.52 4285.19 4667.67 4285.19 4672.04C4285.19 4676.41 4286.02 4679.59 4287.67 4681.56C4289.38 4683.48 4292.21 4684.44 4296.15 4684.44ZM4324.48 4691V4653.08H4332.48L4332.96 4657.48C4334.77 4656.31 4336.93 4655.24 4339.44 4654.28C4341.94 4653.32 4344.42 4652.65 4346.88 4652.28V4658.92C4345.38 4659.19 4343.76 4659.59 4342 4660.12C4340.29 4660.6 4338.66 4661.16 4337.12 4661.8C4335.57 4662.39 4334.26 4663 4333.2 4663.64V4691H4324.48ZM4362.65 4691.8C4360.25 4691.8 4358.01 4691.37 4355.93 4690.52C4353.9 4689.67 4352.27 4688.39 4351.05 4686.68C4349.82 4684.92 4349.21 4682.76 4349.21 4680.2C4349.21 4676.57 4350.43 4673.67 4352.89 4671.48C4355.39 4669.24 4359.23 4668.12 4364.41 4668.12H4376.57V4666.44C4376.57 4664.63 4376.27 4663.19 4375.69 4662.12C4375.15 4661.05 4374.14 4660.28 4372.65 4659.8C4371.21 4659.32 4369.07 4659.08 4366.25 4659.08C4361.77 4659.08 4357.58 4659.75 4353.69 4661.08V4654.6C4355.39 4653.91 4357.47 4653.35 4359.93 4652.92C4362.38 4652.49 4365.02 4652.28 4367.85 4652.28C4373.39 4652.28 4377.61 4653.4 4380.49 4655.64C4383.42 4657.88 4384.89 4661.53 4384.89 4666.6V4691H4377.45L4376.89 4687.16C4375.34 4688.65 4373.42 4689.8 4371.13 4690.6C4368.89 4691.4 4366.06 4691.8 4362.65 4691.8ZM4364.97 4685.56C4367.58 4685.56 4369.85 4685.13 4371.77 4684.28C4373.74 4683.37 4375.34 4682.17 4376.57 4680.68V4674.04H4364.57C4362.01 4674.04 4360.14 4674.55 4358.97 4675.56C4357.85 4676.52 4357.29 4678.01 4357.29 4680.04C4357.29 4682.01 4357.95 4683.43 4359.29 4684.28C4360.62 4685.13 4362.51 4685.56 4364.97 4685.56ZM4404 4691.8C4400.9 4691.8 4398.56 4691.05 4396.96 4689.56C4395.36 4688.01 4394.56 4685.48 4394.56 4681.96V4637.08H4403.28V4681.16C4403.28 4682.65 4403.54 4683.67 4404.08 4684.2C4404.61 4684.73 4405.41 4685 4406.48 4685C4407.76 4685 4408.98 4684.84 4410.16 4684.52V4690.84C4409.14 4691.21 4408.16 4691.45 4407.2 4691.56C4406.29 4691.72 4405.22 4691.8 4404 4691.8ZM4435.42 4691V4639.48H4444.14V4663.16L4466.06 4639.48H4476.14L4457.18 4660.28L4476.94 4691H4467.66L4451.74 4665.8L4444.14 4673.96V4691H4435.42ZM4499.38 4691.8C4492.77 4691.8 4487.65 4690.17 4484.02 4686.92C4480.39 4683.67 4478.58 4678.68 4478.58 4671.96C4478.58 4665.88 4480.13 4661.08 4483.22 4657.56C4486.31 4654.04 4491.01 4652.28 4497.3 4652.28C4503.06 4652.28 4507.38 4653.8 4510.26 4656.84C4513.19 4659.83 4514.66 4663.69 4514.66 4668.44V4675.48H4486.9C4487.33 4679.16 4488.66 4681.69 4490.9 4683.08C4493.14 4684.47 4496.55 4685.16 4501.14 4685.16C4503.06 4685.16 4505.03 4684.97 4507.06 4684.6C4509.09 4684.23 4510.85 4683.75 4512.34 4683.16V4689.56C4510.63 4690.31 4508.66 4690.87 4506.42 4691.24C4504.23 4691.61 4501.89 4691.8 4499.38 4691.8ZM4486.9 4669.8H4506.98V4667.16C4506.98 4664.55 4506.26 4662.52 4504.82 4661.08C4503.38 4659.59 4500.95 4658.84 4497.54 4658.84C4493.49 4658.84 4490.69 4659.72 4489.14 4661.48C4487.65 4663.24 4486.9 4666.01 4486.9 4669.8ZM4527.33 4705.08C4524.45 4705.08 4522 4704.71 4519.97 4703.96V4697.48C4520.88 4697.8 4521.71 4698.01 4522.45 4698.12C4523.25 4698.23 4524.05 4698.28 4524.85 4698.28C4526.51 4698.28 4527.84 4698.01 4528.85 4697.48C4529.87 4696.95 4530.75 4696.09 4531.49 4694.92C4532.29 4693.8 4533.15 4692.33 4534.05 4690.52L4517.17 4653.08H4526.21L4538.37 4681.24L4550.69 4653.08H4559.65L4544.21 4688.84C4542.88 4692.04 4541.44 4694.84 4539.89 4697.24C4538.4 4699.69 4536.64 4701.61 4534.61 4703C4532.64 4704.39 4530.21 4705.08 4527.33 4705.08Z" fill="#212121"/>
<path d="M3443.49 6334V6282.48H3451.17L3478.05 6320.4V6282.48H3486.69V6334H3479.01L3452.21 6296.16V6334H3443.49ZM3515 6334.8C3508.18 6334.8 3503.16 6333.09 3499.96 6329.68C3496.82 6326.27 3495.24 6321.39 3495.24 6315.04C3495.24 6308.69 3496.84 6303.81 3500.04 6300.4C3503.24 6296.99 3508.23 6295.28 3515 6295.28C3521.83 6295.28 3526.84 6296.99 3530.04 6300.4C3533.24 6303.81 3534.84 6308.69 3534.84 6315.04C3534.84 6321.39 3533.24 6326.27 3530.04 6329.68C3526.9 6333.09 3521.88 6334.8 3515 6334.8ZM3515 6327.44C3519 6327.44 3521.83 6326.48 3523.48 6324.56C3525.19 6322.59 3526.04 6319.41 3526.04 6315.04C3526.04 6310.67 3525.19 6307.52 3523.48 6305.6C3521.83 6303.68 3519 6302.72 3515 6302.72C3511.06 6302.72 3508.23 6303.68 3506.52 6305.6C3504.87 6307.52 3504.04 6310.67 3504.04 6315.04C3504.04 6319.41 3504.87 6322.59 3506.52 6324.56C3508.23 6326.48 3511.06 6327.44 3515 6327.44ZM3543.33 6334V6296.08H3551.33L3551.73 6300.08C3553.6 6298.59 3555.65 6297.41 3557.89 6296.56C3560.13 6295.71 3562.53 6295.28 3565.09 6295.28C3567.81 6295.28 3569.92 6295.73 3571.41 6296.64C3572.96 6297.49 3574.13 6298.69 3574.93 6300.24C3576.69 6298.8 3578.72 6297.63 3581.01 6296.72C3583.3 6295.76 3586.05 6295.28 3589.25 6295.28C3593.62 6295.28 3596.85 6296.4 3598.93 6298.64C3601.01 6300.88 3602.05 6304.32 3602.05 6308.96V6334H3593.49V6309.84C3593.49 6306.91 3592.88 6304.85 3591.65 6303.68C3590.42 6302.51 3588.42 6301.92 3585.65 6301.92C3583.84 6301.92 3582.1 6302.24 3580.45 6302.88C3578.85 6303.52 3577.46 6304.48 3576.29 6305.76C3576.45 6306.35 3576.56 6306.96 3576.61 6307.6C3576.66 6308.24 3576.69 6308.93 3576.69 6309.68V6334H3568.61V6309.92C3568.61 6307.15 3568.13 6305.12 3567.17 6303.84C3566.21 6302.56 3564.4 6301.92 3561.73 6301.92C3559.86 6301.92 3558.08 6302.37 3556.37 6303.28C3554.72 6304.13 3553.22 6305.17 3551.89 6306.4V6334H3543.33ZM3622.51 6334.8C3620.11 6334.8 3617.87 6334.37 3615.79 6333.52C3613.77 6332.67 3612.14 6331.39 3610.91 6329.68C3609.69 6327.92 3609.07 6325.76 3609.07 6323.2C3609.07 6319.57 3610.3 6316.67 3612.75 6314.48C3615.26 6312.24 3619.1 6311.12 3624.27 6311.12H3636.43V6309.44C3636.43 6307.63 3636.14 6306.19 3635.55 6305.12C3635.02 6304.05 3634.01 6303.28 3632.51 6302.8C3631.07 6302.32 3628.94 6302.08 3626.11 6302.08C3621.63 6302.08 3617.45 6302.75 3613.55 6304.08V6297.6C3615.26 6296.91 3617.34 6296.35 3619.79 6295.92C3622.25 6295.49 3624.89 6295.28 3627.71 6295.28C3633.26 6295.28 3637.47 6296.4 3640.35 6298.64C3643.29 6300.88 3644.75 6304.53 3644.75 6309.6V6334H3637.31L3636.75 6330.16C3635.21 6331.65 3633.29 6332.8 3630.99 6333.6C3628.75 6334.4 3625.93 6334.8 3622.51 6334.8ZM3624.83 6328.56C3627.45 6328.56 3629.71 6328.13 3631.63 6327.28C3633.61 6326.37 3635.21 6325.17 3636.43 6323.68V6317.04H3624.43C3621.87 6317.04 3620.01 6317.55 3618.83 6318.56C3617.71 6319.52 3617.15 6321.01 3617.15 6323.04C3617.15 6325.01 3617.82 6326.43 3619.15 6327.28C3620.49 6328.13 3622.38 6328.56 3624.83 6328.56ZM3670.1 6334.8C3666.69 6334.8 3663.68 6334.21 3661.06 6333.04C3658.45 6331.87 3656.42 6329.92 3654.98 6327.2C3653.54 6324.48 3652.82 6320.83 3652.82 6316.24C3652.82 6311.71 3653.6 6307.89 3655.14 6304.8C3656.69 6301.65 3658.82 6299.28 3661.54 6297.68C3664.32 6296.08 3667.44 6295.28 3670.9 6295.28C3673.2 6295.28 3675.22 6295.55 3676.98 6296.08C3678.8 6296.61 3680.53 6297.44 3682.18 6298.56V6280.08H3690.9V6334H3683.46L3682.9 6330.24C3681.2 6331.79 3679.33 6332.93 3677.3 6333.68C3675.28 6334.43 3672.88 6334.8 3670.1 6334.8ZM3672.42 6328.24C3676.32 6328.24 3679.57 6326.91 3682.18 6324.24V6305.28C3679.68 6303.04 3676.53 6301.92 3672.74 6301.92C3669.06 6301.92 3666.29 6303.15 3664.42 6305.6C3662.56 6308.05 3661.62 6311.63 3661.62 6316.32C3661.62 6320.85 3662.48 6323.97 3664.18 6325.68C3665.94 6327.39 3668.69 6328.24 3672.42 6328.24ZM3719.42 6334V6282.48H3728.14V6306.16L3750.06 6282.48H3760.14L3741.18 6303.28L3760.94 6334H3751.66L3735.74 6308.8L3728.14 6316.96V6334H3719.42ZM3783.39 6334.8C3776.78 6334.8 3771.66 6333.17 3768.03 6329.92C3764.4 6326.67 3762.59 6321.68 3762.59 6314.96C3762.59 6308.88 3764.14 6304.08 3767.23 6300.56C3770.32 6297.04 3775.02 6295.28 3781.31 6295.28C3787.07 6295.28 3791.39 6296.8 3794.27 6299.84C3797.2 6302.83 3798.67 6306.69 3798.67 6311.44V6318.48H3770.91C3771.34 6322.16 3772.67 6324.69 3774.91 6326.08C3777.15 6327.47 3780.56 6328.16 3785.15 6328.16C3787.07 6328.16 3789.04 6327.97 3791.07 6327.6C3793.1 6327.23 3794.86 6326.75 3796.35 6326.16V6332.56C3794.64 6333.31 3792.67 6333.87 3790.43 6334.24C3788.24 6334.61 3785.9 6334.8 3783.39 6334.8ZM3770.91 6312.8H3790.99V6310.16C3790.99 6307.55 3790.27 6305.52 3788.83 6304.08C3787.39 6302.59 3784.96 6301.84 3781.55 6301.84C3777.5 6301.84 3774.7 6302.72 3773.15 6304.48C3771.66 6306.24 3770.91 6309.01 3770.91 6312.8ZM3811.34 6348.08C3808.46 6348.08 3806.01 6347.71 3803.98 6346.96V6340.48C3804.89 6340.8 3805.72 6341.01 3806.46 6341.12C3807.26 6341.23 3808.06 6341.28 3808.86 6341.28C3810.52 6341.28 3811.85 6341.01 3812.86 6340.48C3813.88 6339.95 3814.76 6339.09 3815.5 6337.92C3816.3 6336.8 3817.16 6335.33 3818.06 6333.52L3801.18 6296.08H3810.22L3822.38 6324.24L3834.7 6296.08H3843.66L3828.22 6331.84C3826.89 6335.04 3825.45 6337.84 3823.9 6340.24C3822.41 6342.69 3820.65 6344.61 3818.62 6346C3816.65 6347.39 3814.22 6348.08 3811.34 6348.08Z" fill="#212121"/>
<path d="M2019.65 6770.8C2012.98 6770.8 2007.62 6769.95 2003.57 6768.24V6760.56C2005.86 6761.41 2008.31 6762.11 2010.93 6762.64C2013.59 6763.17 2016.23 6763.44 2018.85 6763.44C2022.95 6763.44 2026.02 6762.96 2028.05 6762C2030.13 6761.04 2031.17 6759.12 2031.17 6756.24C2031.17 6754.48 2030.74 6753.07 2029.89 6752C2029.03 6750.93 2027.62 6750.03 2025.65 6749.28C2023.67 6748.48 2020.95 6747.65 2017.49 6746.8C2011.94 6745.36 2008.05 6743.55 2005.81 6741.36C2003.57 6739.12 2002.45 6736.05 2002.45 6732.16C2002.45 6727.63 2004.1 6724.08 2007.41 6721.52C2010.71 6718.96 2015.65 6717.68 2022.21 6717.68C2025.19 6717.68 2027.99 6717.89 2030.61 6718.32C2033.27 6718.75 2035.35 6719.23 2036.85 6719.76V6727.44C2032.79 6725.89 2028.31 6725.12 2023.41 6725.12C2019.57 6725.12 2016.58 6725.63 2014.45 6726.64C2012.31 6727.65 2011.25 6729.49 2011.25 6732.16C2011.25 6733.71 2011.62 6734.96 2012.37 6735.92C2013.11 6736.88 2014.39 6737.71 2016.21 6738.4C2018.07 6739.09 2020.63 6739.87 2023.89 6740.72C2028.1 6741.79 2031.35 6743.07 2033.65 6744.56C2035.99 6746 2037.62 6747.71 2038.53 6749.68C2039.49 6751.6 2039.97 6753.79 2039.97 6756.24C2039.97 6760.77 2038.29 6764.35 2034.93 6766.96C2031.57 6769.52 2026.47 6770.8 2019.65 6770.8ZM2059.09 6770.8C2056.69 6770.8 2054.45 6770.37 2052.37 6769.52C2050.34 6768.67 2048.72 6767.39 2047.49 6765.68C2046.26 6763.92 2045.65 6761.76 2045.65 6759.2C2045.65 6755.57 2046.88 6752.67 2049.33 6750.48C2051.84 6748.24 2055.68 6747.12 2060.85 6747.12H2073.01V6745.44C2073.01 6743.63 2072.72 6742.19 2072.13 6741.12C2071.6 6740.05 2070.58 6739.28 2069.09 6738.8C2067.65 6738.32 2065.52 6738.08 2062.69 6738.08C2058.21 6738.08 2054.02 6738.75 2050.13 6740.08V6733.6C2051.84 6732.91 2053.92 6732.35 2056.37 6731.92C2058.82 6731.49 2061.46 6731.28 2064.29 6731.28C2069.84 6731.28 2074.05 6732.4 2076.93 6734.64C2079.86 6736.88 2081.33 6740.53 2081.33 6745.6V6770H2073.89L2073.33 6766.16C2071.78 6767.65 2069.86 6768.8 2067.57 6769.6C2065.33 6770.4 2062.5 6770.8 2059.09 6770.8ZM2061.41 6764.56C2064.02 6764.56 2066.29 6764.13 2068.21 6763.28C2070.18 6762.37 2071.78 6761.17 2073.01 6759.68V6753.04H2061.01C2058.45 6753.04 2056.58 6753.55 2055.41 6754.56C2054.29 6755.52 2053.73 6757.01 2053.73 6759.04C2053.73 6761.01 2054.4 6762.43 2055.73 6763.28C2057.06 6764.13 2058.96 6764.56 2061.41 6764.56ZM2091 6770V6732.08H2099L2099.4 6736.08C2101.11 6734.75 2103.13 6733.63 2105.48 6732.72C2107.88 6731.76 2110.52 6731.28 2113.4 6731.28C2118.31 6731.28 2121.88 6732.43 2124.12 6734.72C2126.36 6737.01 2127.48 6740.59 2127.48 6745.44V6770H2118.84V6745.84C2118.84 6742.91 2118.23 6740.85 2117 6739.68C2115.83 6738.51 2113.59 6737.92 2110.28 6737.92C2108.31 6737.92 2106.36 6738.32 2104.44 6739.12C2102.57 6739.92 2101 6740.96 2099.72 6742.24V6770H2091ZM2152.15 6770.8C2148.74 6770.8 2145.72 6770.21 2143.11 6769.04C2140.5 6767.87 2138.47 6765.92 2137.03 6763.2C2135.59 6760.48 2134.87 6756.83 2134.87 6752.24C2134.87 6747.71 2135.64 6743.89 2137.19 6740.8C2138.74 6737.65 2140.87 6735.28 2143.59 6733.68C2146.36 6732.08 2149.48 6731.28 2152.95 6731.28C2155.24 6731.28 2157.27 6731.55 2159.03 6732.08C2160.84 6732.61 2162.58 6733.44 2164.23 6734.56V6716.08H2172.95V6770H2165.51L2164.95 6766.24C2163.24 6767.79 2161.38 6768.93 2159.35 6769.68C2157.32 6770.43 2154.92 6770.8 2152.15 6770.8ZM2154.47 6764.24C2158.36 6764.24 2161.62 6762.91 2164.23 6760.24V6741.28C2161.72 6739.04 2158.58 6737.92 2154.79 6737.92C2151.11 6737.92 2148.34 6739.15 2146.47 6741.6C2144.6 6744.05 2143.67 6747.63 2143.67 6752.32C2143.67 6756.85 2144.52 6759.97 2146.23 6761.68C2147.99 6763.39 2150.74 6764.24 2154.47 6764.24ZM2192.47 6770.8C2189.38 6770.8 2187.03 6770.05 2185.43 6768.56C2183.83 6767.01 2183.03 6764.48 2183.03 6760.96V6716.08H2191.75V6760.16C2191.75 6761.65 2192.02 6762.67 2192.55 6763.2C2193.09 6763.73 2193.89 6764 2194.95 6764C2196.23 6764 2197.46 6763.84 2198.63 6763.52V6769.84C2197.62 6770.21 2196.63 6770.45 2195.67 6770.56C2194.77 6770.72 2193.7 6770.8 2192.47 6770.8ZM2224.65 6770.8C2218.04 6770.8 2212.92 6769.17 2209.29 6765.92C2205.67 6762.67 2203.85 6757.68 2203.85 6750.96C2203.85 6744.88 2205.4 6740.08 2208.49 6736.56C2211.59 6733.04 2216.28 6731.28 2222.57 6731.28C2228.33 6731.28 2232.65 6732.8 2235.53 6735.84C2238.47 6738.83 2239.93 6742.69 2239.93 6747.44V6754.48H2212.17C2212.6 6758.16 2213.93 6760.69 2216.17 6762.08C2218.41 6763.47 2221.83 6764.16 2226.41 6764.16C2228.33 6764.16 2230.31 6763.97 2232.33 6763.6C2234.36 6763.23 2236.12 6762.75 2237.61 6762.16V6768.56C2235.91 6769.31 2233.93 6769.87 2231.69 6770.24C2229.51 6770.61 2227.16 6770.8 2224.65 6770.8ZM2212.17 6748.8H2232.25V6746.16C2232.25 6743.55 2231.53 6741.52 2230.09 6740.08C2228.65 6738.59 2226.23 6737.84 2222.81 6737.84C2218.76 6737.84 2215.96 6738.72 2214.41 6740.48C2212.92 6742.24 2212.17 6745.01 2212.17 6748.8ZM2266.86 6770V6718.48H2275.58V6742.16L2297.5 6718.48H2307.58L2288.62 6739.28L2308.38 6770H2299.1L2283.18 6744.8L2275.58 6752.96V6770H2266.86ZM2330.83 6770.8C2324.21 6770.8 2319.09 6769.17 2315.47 6765.92C2311.84 6762.67 2310.03 6757.68 2310.03 6750.96C2310.03 6744.88 2311.57 6740.08 2314.67 6736.56C2317.76 6733.04 2322.45 6731.28 2328.75 6731.28C2334.51 6731.28 2338.83 6732.8 2341.71 6735.84C2344.64 6738.83 2346.11 6742.69 2346.11 6747.44V6754.48H2318.35C2318.77 6758.16 2320.11 6760.69 2322.35 6762.08C2324.59 6763.47 2328 6764.16 2332.59 6764.16C2334.51 6764.16 2336.48 6763.97 2338.51 6763.6C2340.53 6763.23 2342.29 6762.75 2343.79 6762.16V6768.56C2342.08 6769.31 2340.11 6769.87 2337.87 6770.24C2335.68 6770.61 2333.33 6770.8 2330.83 6770.8ZM2318.35 6748.8H2338.43V6746.16C2338.43 6743.55 2337.71 6741.52 2336.27 6740.08C2334.83 6738.59 2332.4 6737.84 2328.99 6737.84C2324.93 6737.84 2322.13 6738.72 2320.59 6740.48C2319.09 6742.24 2318.35 6745.01 2318.35 6748.8ZM2358.78 6784.08C2355.9 6784.08 2353.45 6783.71 2351.42 6782.96V6776.48C2352.33 6776.8 2353.15 6777.01 2353.9 6777.12C2354.7 6777.23 2355.5 6777.28 2356.3 6777.28C2357.95 6777.28 2359.29 6777.01 2360.3 6776.48C2361.31 6775.95 2362.19 6775.09 2362.94 6773.92C2363.74 6772.8 2364.59 6771.33 2365.5 6769.52L2348.62 6732.08H2357.66L2369.82 6760.24L2382.14 6732.08H2391.1L2375.66 6767.84C2374.33 6771.04 2372.89 6773.84 2371.34 6776.24C2369.85 6778.69 2368.09 6780.61 2366.06 6782C2364.09 6783.39 2361.66 6784.08 2358.78 6784.08Z" fill="#212121"/>
</svg>
